<svg xmlns="http://www.w3.org/2000/svg" viewBox="0 0 1957 1967"><defs><style>.cls-1{fill:oklch(24.4% 0.015 256)}.cls-2{fill:oklch(100% 0 0)}.cls-3{fill:oklch(66% 0.303 328.4)}.cls-4{fill:color-mix(in oklch, oklch(66% 0.303 328.4) 33%, oklch(88.3% 0.181 94.5))}</style></defs><path d="M978.2 1685.5c68 0 123.8 12.2 128.7 27.7l-16.7-94.6v.1c0 14.3-50.2 26-112 26s-112-11.6-112-26l-16.7 94.5c4.8-15.5 60.5-27.7 128.7-27.7ZM978.2 1385c39 0 71 7 73.6 16l-10.7-61v.3c0 8-28.2 14.5-63 14.5s-62.9-6.5-62.9-14.5v-.2l-10.7 60.9c2.7-9 34.6-16 73.7-16Z" class="cls-3"/><path d="M978.2 1444.4c44.7 0 81.4 8 84.5 18.2L1052 1402v.2c0 9.4-33 17-73.8 17s-73.9-7.6-73.9-17v-.2l-10.7 60.6c3.1-10.1 39.8-18.2 84.5-18.2ZM978.2 1592.8c59.1 0 107.5 10.6 111.7 24l-13.4-75.6v.2c0 12.5-44 22.7-98.4 22.7s-98.3-10.2-98.3-22.7v-.2l-13.4 75.6c4.2-13.4 52.6-24 111.7-24Z" class="cls-4"/><path d="M978.2 1889.5c87.8 0 159.7 15.8 166 35.7l-20-113.2c0 18.8-65.3 33.9-146 33.9S832 1830.7 832 1812.1l-20 113.1c6.4-20 78.3-35.7 166.1-35.7Z" class="cls-3"/><path d="M978.2 1778.2c77 0 140.1 13.9 145.6 31.4l-16.6-94.3c0 16.6-57.8 30-129 30s-129.1-13.4-129.1-30l-16.7 94.3c5.6-17.5 68.7-31.4 145.7-31.4Z" class="cls-4"/><path d="M978.2 1518.6c52 0 94.4 9.3 98 21.1L1063 1464v.1c0 10.9-38 19.6-84.7 19.6s-84.8-8.7-84.8-19.6v-.1l-13.4 75.8c3.7-11.8 46.2-21.1 98.2-21.1Z" class="cls-3"/><path d="M1144.2 1925.2c-6.3-20-78.2-35.7-166-35.7s-159.8 15.8-166.1 35.7l-.5 2.9c0 21.3 74.6 38.6 166.6 38.6s166.6-17.3 166.6-38.6l-.5-2.9Z" class="cls-1"/><path d="M978.2 1846c80.7 0 146-15.2 146-34l-.3-2.4c-5.6-17.5-68.7-31.3-145.7-31.3S838 1792 832.5 1809.6l-.5 2.5c0 18.7 65.5 33.8 146.2 33.8Z" class="cls-2"/><path d="M978.2 1745.3c71.2 0 129-13.4 129-30l-.3-2c-4.9-15.6-60.6-27.8-128.7-27.8s-123.9 12.2-128.7 27.7l-.4 2.1c0 16.6 57.8 30 129 30Z" class="cls-1"/><path d="M978.2 1644.7c61.8 0 112-11.7 112-26v-.1l-.3-1.8c-4.2-13.4-52.6-24-111.7-24s-107.6 10.6-111.7 24l-.3 1.8v.1c0 14.3 50.1 26 112 26Z" class="cls-2"/><path d="M978.2 1564.1c54.3 0 98.3-10.2 98.3-22.7v-.2l-.2-1.5c-3.6-11.8-46.2-21.1-98.1-21.1s-94.5 9.3-98.2 21.1l-.2 1.5v.2c0 12.5 44 22.7 98.4 22.7Z" class="cls-1"/><path d="M978.2 1483.6c46.8 0 84.7-8.7 84.7-19.6v-.1l-.2-1.3c-3.1-10.2-39.8-18.2-84.5-18.2s-81.5 8-84.6 18.2l-.2 1.3v.1c0 10.8 38 19.6 84.8 19.6Z" class="cls-2"/><path d="M978.2 1419.2c40.7 0 73.8-7.6 73.8-17v-.2l-.2-1c-2.6-9-34.6-16-73.6-16s-71 7-73.7 16l-.2 1v.1c0 9.5 33 17.1 73.9 17.1Z" class="cls-1"/><path d="M978.2 1354.8c34.7 0 62.9-6.5 62.9-14.5v-.2l-.2-.8c-2.2-7.6-29.4-13.6-62.7-13.6s-60.6 6-62.8 13.6l-.1.8v.2c0 8 28.1 14.5 62.9 14.5Z" class="cls-2"/><path d="M978.2 1290.4c28.7 0 52-5.4 52-12s-23.3-12-52-12-52 5.3-52 12 23.2 12 52 12Z" class="cls-1"/><path d="M978.2 1242.1c24.2 0 43.8-4.5 43.8-10.1s-19.6-10.2-43.8-10.2-43.9 4.6-43.9 10.2 19.6 10.1 43.9 10.1Z" class="cls-2"/><ellipse cx="978.2" cy="1185.6" class="cls-1" rx="35.6" ry="8.3"/><path d="M978.2 1145.5c15.1 0 27.4-2.8 27.4-6.3s-12.3-6.4-27.4-6.4-27.5 2.9-27.5 6.4 12.3 6.3 27.5 6.3Z" class="cls-2"/><ellipse cx="978.2" cy="1092.8" class="cls-1" rx="19.3" ry="4.5"/><ellipse cx="978.2" cy="1053.9" class="cls-2" rx="12.4" ry="2.9"/><path d="M1030.2 1278.4c0 6.6-23.3 12-52 12s-52-5.4-52-12l-10.8 60.9c2.2-7.6 29.5-13.6 62.8-13.6s60.5 6 62.7 13.6l-10.7-61Z" class="cls-4"/><path d="M978.2 1088.3c10.6 0 19.2 2 19.2 4.5l-6.8-39c0 1.7-5.6 3-12.4 3s-12.5-1.3-12.5-3l-6.8 39c0-2.5 8.6-4.5 19.3-4.5Z" class="cls-3"/><path d="M978.2 1132.8c15.1 0 27.4 2.9 27.4 6.4l-8.1-46.4c0 2.4-8.7 4.4-19.3 4.4s-19.3-2-19.3-4.4l-8.2 46.4c0-3.5 12.3-6.4 27.5-6.4Z" class="cls-4"/><path d="M978.2 1177.3c19.6 0 35.6 3.7 35.6 8.3l-8.2-46.4c0 3.5-12.3 6.3-27.4 6.3s-27.5-2.8-27.5-6.3l-8.2 46.4c0-4.6 16-8.3 35.7-8.3Z" class="cls-3"/><path d="M1013.8 1185.6c0 4.5-16 8.2-35.6 8.2s-35.7-3.7-35.7-8.2l-8.2 46.4c0-5.6 19.7-10.2 43.9-10.2s43.8 4.6 43.8 10.2l-8.2-46.4Z" class="cls-4"/><path d="M978.2 1266.3c28.7 0 52 5.4 52 12l-8.2-46.3c0 5.6-19.6 10.1-43.8 10.1s-43.9-4.5-43.9-10.1l-8.2 46.4c0-6.7 23.3-12 52-12Z" class="cls-3"/><path d="M965.7 1053.9c0-1.6 5.6-2.9 12.5-2.9s12.4 1.3 12.4 2.9l-12.4-70.6-12.5 70.6ZM1218.3 1643.2c64-23.3 120.6-31 130.4-18l-48-83.2c5 13.5-38.2 41.6-96.4 62.8s-109.2 27.4-114.1 13.9v-.1l16.7 94.6c-.8-16.2 47.4-46.8 111.4-70ZM1115.5 1360.8c36.7-13.3 69.2-17.7 74.7-10.2l-31-53.6.2.2c2.7 7.6-21.5 23.3-54.2 35.2-32.6 12-61.3 15.4-64 7.9l-.1-.2 10.7 60.9c-.6-9.3 27-26.8 63.8-40.2Z" class="cls-4"/><path d="M1135.8 1416.6c42.1-15.3 79.3-20.3 85.7-11.8l-30.8-53.3v.1c3.3 8.9-25.1 27.4-63.5 41.4s-72 18-75.2 9.1v-.1l10.7 60.6c-.6-10.6 31-30.7 73.2-46ZM1186.6 1556c55.6-20.2 104.7-26.8 113.2-15.6l-38.4-66.5v.2c4.4 11.8-33.5 36.4-84.6 55-51 18.6-96 24.1-100.2 12.3v-.2l13.3 75.6c-.7-14 41.1-40.6 96.7-60.8Z" class="cls-3"/><path d="M1288 1834.9c82.6-30 155.6-39.9 168.4-23.3l-57.5-99.5c6.4 17.6-49.9 54.2-125.7 81.8-75.9 27.6-142.5 35.7-149 18.2l20 113.1c-.8-20.9 61.4-60.3 143.9-90.3Z" class="cls-4"/><path d="M1250 1730.3c72.5-26.4 136.5-35 147.6-20.4l-47.8-82.9c5.7 15.6-44 48-111 72.3-67 24.4-126 31.6-131.6 16l16.6 94.3c-.8-18.4 53.8-53 126.2-79.3Z" class="cls-3"/><path d="M1161.2 1486.3c48.8-17.8 92-23.6 99.4-13.7l-38.5-66.7v.1c3.8 10.2-28.8 31.5-72.8 47.5s-82.7 20.7-86.4 10.5v-.1l13.4 75.8c-.7-12.3 36-35.6 85-53.4Z" class="cls-4"/><path d="M1456.4 1811.6c-12.8-16.6-85.8-6.8-168.3 23.3-82.6 30-144.7 69.4-143.9 90.3l.5 2.9c7.3 20 83.3 10.7 169.8-20.7s150.6-73.2 143.3-93.3l-1.4-2.5Z" class="cls-2"/><path d="M1273.2 1793.9c75.8-27.6 132.1-64.2 125.7-81.8l-1.3-2.2c-11.1-14.6-75.1-6-147.6 20.4-72.4 26.4-127 61-126.1 79.3l.4 2.4c6.4 17.6 73 9.5 148.9-18.1Z" class="cls-1"/><path d="M1238.8 1699.3c67-24.4 116.7-56.7 111-72.2l-1-2c-10-12.8-66.5-5.2-130.5 18-64 23.4-112.2 54-111.4 70.1l.3 2.1v.1c5.7 15.5 64.6 8.3 131.6-16Z" class="cls-2"/><path d="M1204.3 1604.8c58.2-21.2 101.3-49.3 96.4-62.7v-.1l-1-1.6c-8.4-11.2-57.5-4.6-113.1 15.6s-97.4 46.8-96.7 60.8l.3 1.8v.1c4.9 13.5 56 7.2 114.1-14Z" class="cls-1"/><path d="M1176.8 1529.1c51-18.6 89-43.2 84.7-55v-.2l-.8-1.3c-7.5-9.8-50.6-4-99.5 13.7-48.8 17.8-85.6 41-85 53.4l.3 1.5v.2c4.4 11.8 49.2 6.3 100.3-12.3Z" class="cls-2"/><path d="M1149.3 1453.5c44-16 76.6-37.3 72.9-47.4v-.2l-.7-1c-6.4-8.6-43.6-3.6-85.6 11.7-42.1 15.3-73.8 35.4-73.2 46l.2 1.3v.1c3.7 10.2 42.4 5.5 86.4-10.5Z" class="cls-1"/><path d="M1127.2 1393c38.4-14 66.8-32.5 63.6-41.4l-.1-.1-.5-1c-5.5-7.4-38-3-74.7 10.3-36.7 13.4-64.3 30.9-63.7 40.1l.2 1v.2c3.2 8.9 37 4.8 75.2-9.2Z" class="cls-2"/><path d="M1105.2 1332.4c32.7-11.9 57-27.6 54.2-35.2l-.1-.2-.4-.7c-4.7-6.3-32.3-2.6-63.6 8.7-31.3 11.4-54.9 26.4-54.4 34.3l.2.8v.2c2.8 7.5 31.5 4 64.1-7.9Z" class="cls-1"/><path d="M1083.2 1272c27-10 47-23 44.8-29.2-2.3-6.2-26-3.3-53 6.5s-47 22.8-44.8 29c2.3 6.3 26 3.4 53-6.4Z" class="cls-2"/><path d="M1066.7 1226.5c22.7-8.3 39.6-19.2 37.7-24.5-2-5.3-22-2.8-44.7 5.4-22.7 8.3-39.6 19.3-37.7 24.6 2 5.2 22 2.8 44.7-5.5Z" class="cls-1"/><ellipse cx="1047.3" cy="1173.4" class="cls-2" rx="35.6" ry="8.3" transform="rotate(-20 1047.3 1173.4)"/><path d="M1033.6 1135.7c14.3-5.2 24.9-12 23.7-15.3-1.2-3.3-13.8-1.8-28 3.4-14.3 5.2-24.8 12-23.6 15.4s13.7 1.7 28-3.5Z" class="cls-1"/><ellipse cx="1015.6" cy="1086.2" class="cls-2" rx="19.3" ry="4.5" transform="rotate(-20 1015.6 1086.2)"/><ellipse cx="1002.3" cy="1049.6" class="cls-1" rx="12.4" ry="2.9" transform="rotate(-20 1002.3 1049.6)"/><path d="M1128 1242.8c2.2 6.3-17.8 19.3-44.8 29.1-27 9.8-50.7 12.7-53 6.5l10.7 60.9c-.5-8 23-22.9 54.4-34.3 31.3-11.4 59-15 63.6-8.7l-31-53.5Z" class="cls-3"/><path d="M1014 1082c10-3.7 18.9-4.7 19.7-2.4s-19.7-34.2-19.7-34.2c.5 1.5-4.3 4.6-10.7 7-6.5 2.3-12.1 3-12.7 1.5s6.9 38.9 6.9 38.9c-.8-2.4 6.6-7.2 16.6-10.8Z" class="cls-4"/><path d="M1029.3 1123.8c14.2-5.2 26.8-6.7 28-3.4s-23.6-40.9-23.6-40.9c.8 2.4-6.6 7.2-16.6 10.8-10 3.7-18.8 4.7-19.6 2.4s8.1 46.4 8.1 46.4c-1.2-3.3 9.4-10.1 23.7-15.3Z" class="cls-3"/><path d="M1044.5 1165.6c18.5-6.7 34.8-8.7 36.3-4.4s-23.5-40.8-23.5-40.8c1.2 3.3-9.4 10.1-23.7 15.3-14.2 5.2-26.8 6.7-28 3.4s8.2 46.5 8.2 46.5c-1.5-4.3 12.2-13.3 30.7-20Z" class="cls-4"/><path d="M1080.8 1161.2c1.6 4.3-12.2 13.2-30.7 20-18.5 6.7-34.7 8.7-36.3 4.4s8.2 46.4 8.2 46.4c-2-5.3 15-16.3 37.7-24.5 22.8-8.3 42.7-10.8 44.7-5.5s-23.6-40.8-23.6-40.8Z" class="cls-3"/><path d="M1075 1249.3c27-9.8 50.7-12.7 53-6.5s-23.6-40.8-23.6-40.8c1.9 5.3-15 16.3-37.7 24.5-22.8 8.3-42.8 10.7-44.7 5.5s8.2 46.4 8.2 46.4c-2.3-6.3 17.8-19.3 44.8-29.1Z" class="cls-4"/><path d="M990.6 1053.9c-.5-1.5 4.2-4.6 10.7-7 6.5-2.3 12.1-3 12.7-1.5s-35.8-62-35.8-62l12.4 70.5ZM1429.5 1521.2c52.2-43.8 102.7-70.2 116.4-61.5l-73.6-61.7c9.3 11-21.7 52.2-69 92-47.5 39.7-93.3 63-102.5 52h-.1l48 83.2c-6.2-15 28.6-60.2 80.8-104ZM1236.4 1291c29.9-25 58.9-40.2 66.6-35l-47.4-39.8.2.1c5.2 6.2-12.2 29.3-38.9 51.6-26.6 22.4-52.4 35.5-57.5 29.3l-.1-.2 30.9 53.6c-3.7-8.5 16.2-34.4 46.2-59.5Z" class="cls-3"/><path d="M1274.5 1336.5c34.3-28.8 67.6-46.2 76.5-40.3l-47.2-39.6.1.1c6 7.2-14.3 34.4-45.6 60.6-31.2 26.2-61.4 41.6-67.5 34.3l-.1-.1 30.8 53.3c-4.2-9.8 18.7-39.5 53-68.3ZM1369.9 1450.2c45.3-38 89.2-61 101-53.4l-58.8-49.3h.1c8.1 9.7-19 45.8-60.7 80.8-41.6 34.9-82 55.4-90 45.8v-.2l38.3 66.5c-5.5-13 24.8-52.2 70.1-90.2Z" class="cls-4"/><path d="M1560.6 1677.5c67.3-56.5 132.5-90.6 150.2-79.4l-88-73.9c12 14.4-28.4 68-90.2 120-61.8 51.8-121.7 82.2-133.7 68v-.1l57.5 99.5c-8-19.3 37-77.6 104.2-134Z" class="cls-3"/><path d="M1489.1 1592.3c59-49.6 116.3-79.5 131.8-69.7l-73.4-61.5c10.7 12.7-25 60.1-79.6 106-54.6 45.7-107.5 72.6-118 60h-.1l47.9 82.8c-7-17 32.4-68 91.4-117.6Z" class="cls-4"/><path d="M1322.2 1393.4c39.8-33.4 78.4-53.6 88.8-46.9l-59-49.5c7 8.4-16.4 39.5-52.3 69.6-35.8 30-70.5 47.7-77.5 39.4l38.4 66.6c-4.8-11.4 21.8-45.8 61.6-79.2Z" class="cls-3"/><path d="M1710.8 1598.1c-17.7-11.2-82.9 23-150.2 79.4-67.2 56.5-112.2 114.8-104.2 134.1l1.4 2.5c13.7 16.4 82-18.4 152.4-77.5 70.5-59.1 116.5-120.3 102.9-136.6l-2.3-1.9Z" class="cls-1"/><path d="M1532.6 1644.1c61.8-51.9 102.2-105.5 90.2-119.8l-2-1.7c-15.4-9.9-72.7 20.1-131.7 69.7-59 49.5-98.5 100.7-91.5 117.6l1.3 2.2c12 14.3 71.9-16.1 133.7-68Z" class="cls-2"/><path d="M1468 1567c54.5-45.8 90.2-93.2 79.6-105.8l-1.7-1.5c-13.7-8.7-64.2 17.7-116.4 61.5s-87 89-80.8 104l1.1 1.8c10.7 12.7 63.5-14.2 118.1-60Z" class="cls-1"/><path d="M1403.2 1490c47.4-39.8 78.4-81 69.2-92h-.1l-1.4-1.2c-11.8-7.6-55.7 15.4-101 53.4s-75.6 77.3-70.1 90.2l.9 1.6c9.3 11 55.1-12.3 102.5-52Z" class="cls-2"/><path d="M1351.5 1428.3c41.6-35 68.8-71 60.7-80.7v-.1l-1.2-1c-10.4-6.7-49 13.5-88.8 46.9s-66.4 67.8-61.5 79.2l.7 1.3v.1c8.2 9.7 48.5-10.8 90.1-45.7Z" class="cls-1"/><path d="M1299.8 1366.6c35.8-30.1 59.2-61.2 52.3-69.5l-.1-.1-1-.8c-9-5.9-42.2 11.5-76.5 40.3-34.3 28.8-57.2 58.5-53 68.3l.6 1.1.1.1c7 8.3 41.7-9.3 77.6-39.4Z" class="cls-2"/><path d="M1258.3 1317.3c31.3-26.3 51.7-53.4 45.6-60.6l-.1-.1-.8-.7c-7.7-5.1-36.7 10-66.6 35.2-30 25-49.9 51-46.2 59.5l.5.9.1.1c6 7.3 36.3-8.1 67.5-34.3Z" class="cls-1"/><path d="M1217 1268c26.6-22.4 44-45.5 38.8-51.7l-.1-.1-.7-.5c-6.5-4.4-31.3 8.5-56.8 29.9-25.5 21.4-42.5 43.5-39.3 50.7l.4.7v.2c5.3 6.2 31-7 57.7-29.3Z" class="cls-2"/><path d="M1175.5 1218.6c22-18.5 36.4-37.6 32.1-42.7-4.2-5-25.5 5.8-47.5 24.2-22 18.5-36.4 37.6-32.1 42.7 4.3 5 25.6-5.7 47.6-24.2Z" class="cls-1"/><path d="M1144.5 1181.6c18.5-15.6 30.7-31.7 27-36s-21.5 4.9-40 20.4c-18.6 15.6-30.7 31.7-27 36 3.5 4.3 21.5-4.9 40-20.4Z" class="cls-2"/><ellipse cx="1108.2" cy="1138.3" class="cls-1" rx="35.6" ry="8.3" transform="rotate(-40 1108.2 1138.3)"/><path d="M1082.4 1107.6c11.6-9.8 19.2-19.8 17-22.5s-13.5 3-25.2 12.7c-11.6 9.8-19.2 19.9-17 22.6s13.6-3 25.2-12.8Z" class="cls-2"/><ellipse cx="1048.5" cy="1067.2" class="cls-1" rx="19.3" ry="4.5" transform="rotate(-40 1048.5 1067.1)"/><ellipse cx="1023.5" cy="1037.4" class="cls-2" rx="12.4" ry="2.9" transform="rotate(-40 1023.5 1037.4)"/><path d="M1207.7 1176c4.2 5-10.1 24.1-32.1 42.6s-43.3 29.3-47.6 24.2l30.9 53.5c-3.2-7.2 13.8-29.3 39.3-50.7 25.6-21.4 50.3-34.3 56.8-30l-47.3-39.7Z" class="cls-4"/><path d="M1045.6 1063.7c8.2-6.8 16-10.8 17.6-9s-30.2-25.3-30.2-25.3c1 1.2-2.4 5.8-7.7 10.2-5.2 4.4-10.3 7-11.3 5.8s19.7 34.2 19.7 34.2c-1.6-2 3.7-9 12-15.9Z" class="cls-3"/><path d="M1074.2 1097.8c11.7-9.7 22.9-15.4 25.2-12.7s-36.1-30.3-36.1-30.3c1.5 1.9-3.8 9-12 15.8-8.1 6.8-16 10.8-17.6 9s23.6 40.8 23.6 40.8c-2.3-2.7 5.3-12.8 17-22.6Z" class="cls-4"/><path d="M1102.8 1132c15.1-12.7 29.7-20.1 32.7-16.7s-36.1-30.3-36.1-30.3c2.2 2.7-5.4 12.8-17 22.6-11.6 9.7-22.9 15.4-25.1 12.8s23.5 40.8 23.5 40.8c-2.9-3.5 7-16.6 22-29.3Z" class="cls-3"/><path d="M1135.5 1115.3c2.9 3.5-7 16.6-22 29.3-15.1 12.6-29.7 20-32.6 16.6s23.5 40.8 23.5 40.8c-3.6-4.3 8.5-20.4 27-36 18.6-15.5 36.5-24.7 40.2-20.4s-36.1-30.3-36.1-30.3Z" class="cls-4"/><path d="M1160 1200.1c22-18.4 43.4-29.3 47.6-24.2s-36-30.3-36-30.3c3.6 4.3-8.6 20.4-27.1 36-18.5 15.5-36.5 24.7-40.1 20.4s23.6 40.8 23.6 40.8c-4.3-5.1 10-24.2 32-42.7Z" class="cls-3"/><path d="M1014 1045.4c-1-1.2 2.4-5.8 7.7-10.2s10.3-7 11.3-5.8-54.8-46-54.8-46l35.8 62ZM1586.3 1334.4c34-59 72.5-101.1 88.3-97.6l-90.3-32.8h.1c12.4 7.2-2.6 56.4-33.5 110-31 53.6-66 91.2-78.5 84l73.5 61.7c-11-11.9 6.3-66.3 40.4-125.3ZM1326 1184.2c19.6-33.8 41.6-58 50.6-55.8l-58-21.2.1.1c7 4-1.5 31.7-18.8 61.8-17.4 30-37.1 51.2-44.1 47.2l-.2-.1 47.4 39.7c-6.4-6.7 3.5-37.9 23-71.7Z" class="cls-4"/><path d="M1377.5 1213.9c22.3-38.8 47.6-66.5 58-64.1l-57.9-21h.2c8.2 4.7-1.7 37.2-22.1 72.5-20.4 35.3-43.6 60.1-51.8 55.4l-.1-.1 47.2 39.6c-7.3-7.8 4-43.5 26.5-82.3ZM1506 1288c29.5-51.2 63-87.8 76.6-84.7l-72-26.2c11 6.3-2.3 49.6-29.4 96.6-27.2 47.1-58 80.1-69 73.9v-.1l58.7 49.3c-9.5-10.3 5.5-57.5 35-108.8Z" class="cls-3"/><path d="M1763 1436.4c43.9-76 93.5-130.5 114-126l-108.1-39.3c16.2 9.4-3.4 73.6-43.7 143.5-40.4 70-86.2 119-102.4 109.7l88 73.8c-14-15.4 8.2-85.6 52.2-161.7Z" class="cls-4"/><path d="M1666.6 1380.8c38.5-66.8 82-114.5 100-110.5l-90-32.7c14.4 8.2-3 65-38.6 126.7s-76.1 105.1-90.4 96.8l73.3 61.5c-12.4-13.5 7.1-75 45.7-141.8Z" class="cls-3"/><path d="M1441.7 1251c26-45 55.3-77.2 67.4-74.4l-72.4-26.4h.1c9.4 5.5-2 42.7-25.4 83.3-23.4 40.5-50 69-59.3 63.6l-.1-.1 59 49.5c-8.5-9 4.7-50.5 30.7-95.5Z" class="cls-4"/><path d="M1877 1310.5c-20.5-4.5-70.1 49.9-114 126-44 76-66.3 146.2-52.2 161.6l2.3 1.9c18.4 10.6 70.7-45.3 116.7-125s68.3-152.9 49.9-163.5l-2.8-1Z" class="cls-2"/><path d="M1725.2 1414.6c40.3-69.9 60-134.1 43.7-143.5l-2.3-.8c-18-4-61.5 43.7-100 110.5-38.6 66.7-58.2 128.3-45.7 141.8l1.9 1.6c16.2 9.4 62-39.7 102.4-109.6Z" class="cls-1"/><path d="M1638 1364.3c35.7-61.7 53-118.5 38.7-126.7l-2.1-.8c-15.8-3.5-54.3 38.6-88.3 97.6-34.1 59-51.4 113.4-40.4 125.3l1.6 1.4c14.4 8.3 54.9-35 90.5-96.8Z" class="cls-2"/><path d="M1550.9 1314c31-53.6 46-102.8 33.5-110l-1.8-.7c-13.7-3-47 33.5-76.7 84.8-29.5 51.2-44.5 98.4-35 108.7l1.4 1.2c12.5 7.2 47.6-30.4 78.6-84Z" class="cls-1"/><path d="M1481.2 1273.7c27.1-47 40.3-90.3 29.4-96.6h-.1l-1.4-.5c-12-2.8-41.4 29.4-67.4 74.4-26 45-39.2 86.5-30.7 95.5l1.1 1h.1c11 6.4 41.8-26.7 69-73.8Z" class="cls-2"/><path d="M1411.4 1233.5c23.4-40.5 34.8-77.8 25.4-83.2h-.1l-1.2-.5c-10.4-2.4-35.6 25.3-58 64-22.4 38.9-33.8 74.6-26.5 82.4l1 .8c9.5 5.5 36-23 59.4-63.5Z" class="cls-1"/><path d="M1355.7 1201.3c20.4-35.3 30.3-67.8 22-72.5l-1-.4c-9-2.2-31.1 22-50.7 55.8-19.5 33.8-29.4 65-23 71.7l.8.7h.1c8.2 4.8 31.4-20 51.8-55.3Z" class="cls-2"/><path d="M1299.9 1169c17.4-30 25.8-57.7 18.8-61.7h-.2l-.7-.4c-7.7-1.8-26.5 18.8-43.1 47.6-16.7 28.8-25.1 55.4-19.7 61.1l.6.6h.2c7 4.1 26.7-17 44-47.1Z" class="cls-1"/><path d="M1244.1 1136.9c14.4-24.9 21.3-47.8 15.6-51-5.8-3.4-22 14-36.5 39-14.3 24.8-21.3 47.7-15.5 51 5.7 3.3 22-14.2 36.4-39Z" class="cls-2"/><path d="M1202.3 1112.7c12-21 18-40.2 13.1-43-4.8-2.8-18.6 12-30.7 32.9-12 21-18 40.2-13.1 43 4.8 2.8 18.6-12 30.7-32.9Z" class="cls-1"/><ellipse cx="1153.3" cy="1084.5" class="cls-2" rx="35.6" ry="8.3" transform="rotate(-60 1153.3 1084.4)"/><path d="M1118.6 1064.4c7.6-13.1 11.3-25.2 8.2-27-3-1.7-11.6 7.5-19.2 20.7-7.6 13.1-11.3 25.2-8.2 27 3 1.7 11.6-7.5 19.2-20.7Z" class="cls-1"/><ellipse cx="1072.9" cy="1038" class="cls-2" rx="19.3" ry="4.5" transform="rotate(-60 1073 1038)"/><ellipse cx="1039.3" cy="1018.6" class="cls-1" rx="12.4" ry="2.9" transform="rotate(-60 1039.3 1018.6)"/><path d="M1259.7 1085.8c5.8 3.3-1.2 26.2-15.6 51-14.3 25-30.7 42.4-36.4 39.1l47.3 39.7c-5.4-5.7 3-32.3 19.7-61 16.6-29 35.4-49.5 43.1-47.7l-58.1-21Z" class="cls-3"/><path d="M1069 1035.8c5.4-9.2 11.4-15.7 13.6-14.5s-37.1-13.5-37.1-13.5c1.4.8-.3 6.3-3.7 12.2-3.5 6-7.4 10.2-8.7 9.4s30.2 25.3 30.2 25.3c-2.1-1.2.5-9.7 5.8-18.9Z" class="cls-4"/><path d="M1107.6 1058c7.6-13 16.2-22.3 19.2-20.5s-44.2-16.2-44.2-16.2c2.1 1.3-.5 9.8-5.8 19s-11.4 15.7-13.5 14.4 36 30.3 36 30.3c-3-1.7.7-13.8 8.3-27Z" class="cls-3"/><path d="M1146.2 1080.3c9.8-17 21-29 25-26.7s-44.4-16.1-44.4-16.1c3 1.7-.6 13.8-8.2 27-7.6 13-16.2 22.3-19.2 20.5s36 30.3 36 30.3c-3.9-2.2.9-18 10.7-35Z" class="cls-4"/><path d="M1171.1 1053.6c4 2.3-.8 18-10.7 35-9.8 17-21 29-25 26.7s36.2 30.3 36.2 30.3c-4.9-2.8 1-22 13.1-43s25.9-35.7 30.7-33-44.3-16-44.3-16Z" class="cls-3"/><path d="M1223.3 1124.8c14.3-24.8 30.6-42.3 36.4-39s-44.3-16.1-44.3-16.1c4.8 2.8-1 22-13.1 43s-25.9 35.7-30.7 33 36 30.2 36 30.2c-5.7-3.3 1.3-26.2 15.6-51Z" class="cls-4"/><path d="M1033 1029.4c-1.3-.8.3-6.3 3.8-12.2 3.4-6 7.3-10.1 8.7-9.3S978 983.3 978 983.3l55 46ZM1669.7 1105.3c11.8-67.1 33.5-119.9 49.6-122h-96c14.2 2.5 16.9 54 6.1 114.9-10.7 60.9-30.9 108.3-45 105.8l90.2 32.8c-14.4-7.5-16.8-64.5-5-131.6ZM1373.8 1053c6.8-38.4 19.2-68.6 28.4-69.7h-61.8.2c8 1.4 9.5 30.3 3.4 64.5-6 34.3-17.3 60.9-25.2 59.5h-.2l58 21c-8.2-4-9.6-36.8-2.8-75.2Z" class="cls-3"/><path d="M1432.2 1063.4c7.8-44.1 22-78.8 32.6-80h-61.6.2c9.3 1.6 11.1 35.5 4 75.6-7 40.2-20.3 71.4-29.6 69.8h-.2l57.9 21c-9.5-4.8-11-42.3-3.3-86.4ZM1578.3 1089.2c10.3-58.3 29.2-104.1 43.1-105.9h-76.7.1c12.4 2.2 14.8 47.4 5.3 100.9-9.4 53.5-27 95.1-39.5 93v-.1l72 26.2c-12.5-6.4-14.5-56-4.3-114.1Z" class="cls-4"/><path d="M1870.6 1140.7c15.2-86.5 43.2-154.6 64-157.4h-115c18.5 3.3 22 70.3 8 149.8-14 79.5-40.3 141.3-58.7 138l108 39.3c-18.5-9.7-21.6-83.2-6.3-169.7Z" class="cls-3"/><path d="M1761 1121.4c13.4-76 38-135.7 56.2-138h-95.8.1c16.3 2.8 19.4 62 7 132.2-12.4 70.2-35.6 124.8-51.8 122h-.1l90 32.7c-16.4-8.5-19-73-5.6-149Z" class="cls-4"/><path d="M1505.3 1076.3c9-51.2 25.6-91.4 37.8-93h-77 .2c10.6 2 12.7 40.8 4.6 87-8.2 46-23.4 81.8-34 80h-.2l72.4 26.3c-11-5.6-12.8-49.1-3.8-100.3Z" class="cls-3"/><path d="M1934.6 983.3c-20.8 2.8-48.8 70.9-64 157.4-15.3 86.5-12.2 160 6.3 169.8l2.7 1c21 3.6 51-66.8 67-157.4 16-90.6 11.9-167-9.1-170.8h-3Z" class="cls-1"/><path d="M1827.6 1133.1c14-79.5 10.5-146.5-8-149.8h-2.4c-18.3 2.4-42.8 62.2-56.2 138-13.4 76-10.7 140.5 5.6 149l2.3.8c18.4 3.3 44.7-58.5 58.7-138Z" class="cls-2"/><path d="M1728.5 1115.6c12.4-70.2 9.3-129.4-7-132.3h-2.2c-16.1 2.1-37.8 54.9-49.6 122-11.9 67-9.5 124 4.9 131.5l2 .7c16.3 3 39.5-51.7 52-121.9Z" class="cls-1"/><path d="M1629.4 1098.2c10.8-61 8-112.4-6-114.9h-2c-14 1.8-32.8 47.6-43 105.9-10.3 58.2-8.3 107.7 4.2 114.2l1.7.6h.1c14.1 2.5 34.3-44.9 45-105.8Z" class="cls-2"/><path d="M1550.1 1084.2c9.5-53.5 7-98.7-5.3-100.9H1543c-12.2 1.6-28.8 41.8-37.8 93-9 51.2-7.2 94.7 3.8 100.3l1.4.5h.1c12.4 2.2 30-39.4 39.5-92.9Z" class="cls-1"/><path d="M1470.9 1070.2c8-46 6-85-4.7-86.9H1464.8c-10.5 1.3-24.8 36-32.6 80-7.8 44.2-6.2 81.7 3.3 86.5l1.2.4h.1c10.7 2 26-33.9 34-80Z" class="cls-2"/><path d="M1407.4 1059c7.1-40.1 5.3-74-4-75.7h-1.2c-9.2 1.1-21.7 31.3-28.4 69.8-6.8 38.5-5.5 71.1 2.8 75.3l1 .3h.2c9.3 1.7 22.6-29.5 29.6-69.7Z" class="cls-1"/><path d="M1344 1047.8c6-34.2 4.5-63-3.4-64.5h-1c-7.9.9-18.5 26.7-24.3 59.5-5.8 32.8-4.6 60.7 2.5 64.2l.7.2h.2c8 1.5 19.3-25.1 25.3-59.4Z" class="cls-2"/><path d="M1280.6 1036.7c5-28.3 3.7-52.2-2.8-53.3-6.6-1.2-16 20.8-21 49-5 28.4-3.7 52.2 2.9 53.4 6.5 1.1 15.9-20.8 20.9-49.1Z" class="cls-1"/><path d="M1233 1028.3c4.2-23.9 3.2-44-2.4-45-5.5-1-13.4 17.6-17.6 41.5-4.2 23.8-3.1 43.9 2.4 44.9s13.4-17.6 17.6-41.4Z" class="cls-2"/><ellipse cx="1177.3" cy="1018.5" class="cls-1" rx="35.6" ry="8.3" transform="rotate(-80 1177.3 1018.5)"/><path d="M1137.9 1011.5c2.6-15 2-27.5-1.5-28.1s-8.4 11-11 25.9c-2.7 15-2 27.5 1.5 28.1 3.4.6 8.4-11 11-25.9Z" class="cls-2"/><ellipse cx="1085.9" cy="1002.3" class="cls-1" rx="19.3" ry="4.5" transform="rotate(-80 1086 1002.3)"/><ellipse cx="1047.6" cy="995.6" class="cls-2" rx="12.4" ry="2.9" transform="rotate(-80 1047.6 995.6)"/><path d="M1277.8 983.3c6.5 1.2 7.8 25 2.8 53.4-5 28.3-14.3 50.3-20.9 49s0 .1 0 .1l58 21.1c-7-3.4-8.2-31.3-2.4-64.1 5.8-32.8 16.4-58.6 24.3-59.5h-61.8Z" class="cls-4"/><path d="M1081.5 1001.6c1.9-10.5 5.3-18.7 7.8-18.3s-39.5 0-39.5 0c1.6.3 1.9 6 .7 12.8-1.2 6.7-3.5 12-5 11.7s37 13.5 37 13.5c-2.4-.4-2.8-9.3-1-19.7Z" class="cls-3"/><path d="M1125.4 1009.3c2.6-15 7.5-26.6 11-26s-47.1 0-47.1 0c2.4.5 2.9 9.3 1 19.8-1.8 10.5-5.3 18.6-7.7 18.2s44.3 16.2 44.3 16.2c-3.5-.7-4.2-13.3-1.5-28.2Z" class="cls-4"/><path d="M1169.2 1017c3.4-19.4 9.8-34.4 14.3-33.7s-47.1 0-47.1 0c3.5.7 4.1 13.3 1.5 28.2-2.6 15-7.6 26.6-11 26s44.2 16 44.2 16c-4.4-.7-5.3-17-1.9-36.5Z" class="cls-3"/><path d="M1183.5 983.4c4.5.7 5.4 17.1 2 36.5-3.5 19.4-9.9 34.5-14.4 33.7s44.3 16.1 44.3 16.1c-5.5-1-6.6-21.1-2.4-45 4.2-23.8 12.1-42.3 17.6-41.3s-47 0-47 0Z" class="cls-4"/><path d="M1256.9 1032.5c5-28.3 14.3-50.3 20.9-49.1s-47.2 0-47.2 0c5.6 1 6.6 21 2.4 44.9-4.2 23.8-12 42.4-17.6 41.4s44.3 16.1 44.3 16.1c-6.5-1.2-7.8-25-2.8-53.3Z" class="cls-3"/><path d="M1045.5 1007.8c-1.6-.2-1.9-6-.7-12.7s3.4-12 5-11.7-71.6 0-71.6 0l67.3 24.4ZM1669.7 861.4c-11.9-67-9.5-124.1 4.9-131.6l-90.3 33 .1-.1c14.1-2.5 34.3 44.9 45 105.8 10.8 61 8 112.3-6 114.8h-.2 96c-16-2-37.7-54.8-49.5-121.9ZM1373.8 913.6c-6.8-38.5-5.4-71.1 2.9-75.3l-58.1 21.2.1-.1c8-1.4 19.3 25.2 25.3 59.4 6 34.3 4.5 63.1-3.4 64.5h-.2 61.8c-9.2-1-21.7-31.3-28.4-69.7Z" class="cls-4"/><path d="M1432.2 903.3c-7.8-44.1-6.2-81.6 3.3-86.4l-57.9 21h.2c9.3-1.6 22.6 29.6 29.6 69.7 7.1 40.2 5.3 74-4 75.7h-.2 61.6c-10.5-1.2-24.8-36-32.6-80ZM1578.3 877.5c-10.2-58.2-8.2-107.8 4.3-114.2l-72 26.3c12.4-2.3 30.1 39.3 39.5 92.9 9.5 53.5 7 98.6-5.3 100.8h-.1 76.7c-14-1.7-32.8-47.6-43-105.8Z" class="cls-3"/><path d="M1870.6 826c-15.3-86.5-12.2-160 6.3-169.8l-108 39.3c18.4-3.2 44.7 58.6 58.7 138 14 79.5 10.5 146.6-8 149.8h115c-20.8-2.8-48.8-70.8-64-157.3Z" class="cls-4"/><path d="M1761 845.3c-13.4-76-10.7-140.4 5.6-149l-90 32.8c16.3-2.9 39.6 51.7 52 122 12.3 70.1 9.2 129.4-7 132.2h-.2 95.8c-18.3-2.4-42.8-62-56.2-138Z" class="cls-3"/><path d="M1505.3 890.4c-9-51.2-7.2-94.7 3.8-100.3l-72.4 26.4h.1c10.7-2 26 33.9 34 80 8.2 46 6.1 85-4.5 86.8h-.2 77c-12.2-1.5-28.8-41.7-37.8-93Z" class="cls-4"/><path d="M1877 656.2c-18.6 9.7-21.7 83.3-6.4 169.8 15.2 86.5 43.2 154.6 64 157.3h2.9c21-3.7 25-80.1 9-170.7s-45.9-161-66.9-157.4l-2.7 1Z" class="cls-2"/><path d="M1827.6 833.5c-14-79.4-40.3-141.2-58.7-138l-2.3.9c-16.3 8.5-19 73-5.6 148.9 13.4 76 38 135.6 56.2 138h2.4c18.5-3.2 22-70.3 8-149.8Z" class="cls-1"/><path d="M1728.5 851c-12.4-70.2-35.6-124.8-51.8-122v.1l-2.1.7c-14.4 7.5-16.8 64.5-5 131.6 11.9 67 33.6 119.8 49.7 122h2.2c16.3-3 19.4-62.2 7-132.4Z" class="cls-2"/><path d="M1629.4 868.5c-10.7-61-30.9-108.3-45-105.8l-1.8.6c-12.5 6.5-14.5 56-4.3 114.2 10.3 58.2 29.2 104 43.1 105.8H1623.3c14.1-2.4 16.9-53.9 6.1-114.8Z" class="cls-1"/><path d="M1550.1 882.5c-9.4-53.5-27-95.1-39.5-93h-.1l-1.4.6c-11 5.6-12.8 49.1-3.8 100.3 9 51.2 25.6 91.4 37.8 93H1544.8c12.4-2.2 14.8-47.4 5.4-101Z" class="cls-2"/><path d="M1470.9 896.5c-8.2-46.1-23.4-82-34-80h-.2l-1.2.4c-9.5 4.8-11 42.3-3.3 86.4 7.8 44 22 78.8 32.6 80H1466.3c10.7-1.9 12.8-40.7 4.7-86.8Z" class="cls-1"/><path d="M1407.4 907.6c-7-40.1-20.3-71.3-29.6-69.7h-.2l-1 .4c-8.3 4.2-9.6 36.8-2.8 75.3 6.7 38.4 19.2 68.7 28.4 69.7h1.2c9.3-1.6 11.1-35.5 4-75.7Z" class="cls-2"/><path d="M1344 918.8c-6-34.2-17.3-60.8-25.3-59.4h-.2l-.7.3c-7 3.5-8.3 31.4-2.5 64.2 5.8 32.8 16.4 58.6 24.3 59.4h1c8-1.4 9.5-30.2 3.4-64.5Z" class="cls-1"/><path d="M1280.6 930c-5-28.3-14.3-50.3-20.9-49.1-6.6 1.1-7.8 25-2.8 53.3 5 28.3 14.3 50.3 20.9 49.1 6.5-1.1 7.8-25 2.8-53.3Z" class="cls-2"/><path d="M1233 938.4c-4.2-23.8-12-42.4-17.6-41.4-5.5 1-6.6 21-2.4 45 4.2 23.7 12.1 42.3 17.6 41.3 5.6-1 6.6-21 2.4-45Z" class="cls-1"/><ellipse cx="1177.3" cy="948.2" class="cls-2" rx="8.3" ry="35.6" transform="rotate(-10 1177.3 948.2)"/><path d="M1137.9 955.2c-2.6-15-7.6-26.6-11-26-3.5.6-4.2 13.2-1.5 28.2 2.6 15 7.5 26.5 11 26 3.5-.7 4.1-13.3 1.5-28.2Z" class="cls-1"/><ellipse cx="1085.9" cy="964.3" class="cls-2" rx="4.5" ry="19.3" transform="rotate(-10 1086 964.4)"/><ellipse cx="1047.6" cy="971.1" class="cls-1" rx="2.9" ry="12.4" transform="rotate(-10 1047.6 971)"/><path d="M1259.7 880.9c6.5-1.2 15.9 20.8 20.9 49.1 5 28.3 3.7 52.2-2.8 53.3h61.8c-7.9-.8-18.5-26.6-24.3-59.4-5.8-32.8-4.6-60.7 2.5-64.2l-58.1 21.1Z" class="cls-3"/><path d="M1081.5 965.1c-1.8-10.5-1.4-19.3 1-19.8s-37 13.5-37 13.5c1.6-.2 3.8 5 5 11.8 1.2 6.8.9 12.5-.7 12.7s39.5 0 39.5 0c-2.5.5-6-7.7-7.8-18.2Z" class="cls-4"/><path d="M1125.4 957.4c-2.7-15-2-27.6 1.4-28.2s-44.2 16.1-44.2 16.1c2.4-.4 5.9 7.8 7.7 18.3 1.9 10.4 1.4 19.3-1 19.7s47.1 0 47.1 0c-3.5.6-8.4-11-11-26Z" class="cls-3"/><path d="M1169.2 949.6c-3.4-19.3-2.5-35.7 2-36.5s-44.3 16.1-44.3 16.1c3.4-.6 8.4 11 11 26 2.6 15 2 27.5-1.5 28.1s47.1 0 47.1 0c-4.5.8-10.9-14.3-14.3-33.6Z" class="cls-4"/><path d="M1171.1 913.1c4.5-.8 11 14.3 14.4 33.7s2.5 35.7-2 36.5 47.1 0 47.1 0c-5.5 1-13.4-17.5-17.6-41.4-4.2-23.8-3.1-44 2.4-44.9s-44.3 16.1-44.3 16.1Z" class="cls-3"/><path d="M1256.9 934.2c-5-28.3-3.8-52.2 2.8-53.3s-44.3 16-44.3 16v.1c5.5-1 13.4 17.6 17.6 41.4 4.2 23.8 3.2 44-2.4 45s47.2 0 47.2 0c-6.6 1-16-21-21-49.2Z" class="cls-4"/><path d="M1049.8 983.3c-1.6.3-3.8-5-5-11.7-1.2-6.8-.9-12.5.7-12.8s-67.3 24.5-67.3 24.5h71.6ZM1586.3 632.3c-34-59-51.4-113.4-40.4-125.4l-73.6 61.8h.1c12.4-7.2 47.5 30.4 78.5 84s46 102.8 33.5 110l90.2-32.8c-15.8 3.5-54.3-38.7-88.3-97.6ZM1326 782.5c-19.5-33.8-29.4-65-23-71.7l-47.4 39.7.2-.1c7-4 26.7 17 44 47.2 17.5 30 25.9 57.7 19 61.8h-.2l58-21c-9 2-31-22-50.6-56Z" class="cls-3"/><path d="M1377.5 752.8c-22.4-38.8-33.8-74.5-26.5-82.3l-47.2 39.6.1-.1c8.2-4.7 31.4 20 51.8 55.4 20.4 35.3 30.3 67.8 22 72.5l57.8-21c-10.4 2.4-35.6-25.3-58-64ZM1506 678.6c-29.6-51.2-44.6-98.4-35-108.8l-58.9 49.4.1-.1c11-6.3 41.8 26.8 69 73.8 27.1 47 40.3 90.3 29.4 96.6l72-26.2c-13.7 3.1-47-33.5-76.6-84.7Z" class="cls-4"/><path d="M1763 530.2c-44-76-66.3-146.2-52.2-161.7l-88 74c16.2-9.4 62 39.7 102.4 109.5 40.3 70 60 134.2 43.7 143.5l108-39.3c-20.4 4.5-70-49.9-114-126Z" class="cls-3"/><path d="M1666.6 585.9c-38.6-66.8-58.1-128.3-45.7-141.9l-73.4 61.6h.1c14.3-8.3 54.8 35 90.4 96.8 35.7 61.7 53 118.4 38.7 126.7l89.9-32.7c-18 4-61.5-43.8-100-110.5Z" class="cls-4"/><path d="M1441.7 715.7c-26-45-39.2-86.5-30.7-95.5l-59 49.5v-.1c9.5-5.4 36 23 59.4 63.6 23.4 40.5 34.8 77.8 25.4 83.2h-.1l72.4-26.3c-12 2.8-41.4-29.4-67.4-74.4Z" class="cls-3"/><path d="M1710.8 368.6c-14.1 15.4 8.2 85.6 52.1 161.6 44 76.1 93.5 130.5 114 126l2.7-1c18.5-10.6-3.9-83.9-49.9-163.5-46-79.7-98.2-135.6-116.7-125l-2.2 1.9Z" class="cls-1"/><path d="M1725.2 552c-40.4-69.9-86.2-119-102.4-109.6l-2 1.6c-12.3 13.6 7.2 75.1 45.8 141.9 38.5 66.7 82 114.5 100 110.5l2.3-.9c16.2-9.3-3.4-73.6-43.7-143.5Z" class="cls-2"/><path d="M1638 602.4c-35.6-61.8-76.1-105.1-90.4-96.9l-1.7 1.4c-11 12 6.3 66.4 40.4 125.4 34 59 72.5 101.1 88.3 97.6l2-.8c14.4-8.3-3-65-38.6-126.7Z" class="cls-1"/><path d="M1550.9 652.7c-31-53.6-66.1-91.2-78.5-84h-.1l-1.4 1.1c-9.6 10.4 5.5 57.6 35 108.8 29.6 51.2 63 87.8 76.7 84.7l1.7-.6h.1c12.4-7.2-2.6-56.5-33.6-110Z" class="cls-2"/><path d="M1481.2 693c-27.2-47.1-58-80.2-69-73.9l-1.2 1c-8.5 9.1 4.7 50.6 30.7 95.6 26 45 55.3 77.2 67.4 74.4l1.4-.5h.1c11-6.4-2.3-49.6-29.4-96.7Z" class="cls-1"/><path d="M1411.4 733.2c-23.4-40.6-50-69-59.3-63.6h-.2l-1 .9c-7.2 7.7 4.1 43.5 26.5 82.3s47.7 66.5 58 64l1.3-.4h.1c9.4-5.4-2-42.7-25.4-83.2Z" class="cls-2"/><path d="M1355.7 765.4c-20.4-35.3-43.6-60.1-51.8-55.4h-.1l-.8.7c-6.4 6.8 3.5 38 23 71.8 19.6 33.8 41.6 58 50.6 55.8l1-.4h.2c8.2-4.8-1.7-37.2-22.1-72.5Z" class="cls-1"/><path d="M1299.9 797.6c-17.4-30.1-37.1-51.2-44-47.2h-.2l-.7.6c-5.4 5.7 3 32.3 19.7 61.1s35.4 49.5 43 47.6l.9-.3h.1c7-4-1.4-31.7-18.8-61.8Z" class="cls-2"/><path d="M1244.1 829.8c-14.4-24.9-30.7-42.4-36.4-39-5.8 3.3 1.2 26.2 15.6 51 14.3 24.9 30.6 42.4 36.4 39 5.8-3.3-1.2-26.2-15.6-51Z" class="cls-1"/><path d="M1202.3 854c-12.1-21-25.9-35.7-30.7-33-4.9 2.9 1 22.1 13.1 43 12.1 21 25.9 35.8 30.7 33 4.9-2.8-1-22.1-13.1-43Z" class="cls-2"/><ellipse cx="1153.3" cy="882.2" class="cls-1" rx="8.3" ry="35.6" transform="rotate(-30 1153.3 882.2)"/><path d="M1118.6 902.2c-7.6-13-16.2-22.3-19.2-20.6-3 1.8.6 13.9 8.2 27s16.2 22.4 19.2 20.6c3-1.8-.6-13.8-8.2-27Z" class="cls-2"/><ellipse cx="1072.9" cy="928.6" class="cls-1" rx="4.5" ry="19.3" transform="rotate(-30 1073 928.6)"/><ellipse cx="1039.3" cy="948" class="cls-2" rx="2.9" ry="12.4" transform="rotate(-30 1039.3 948)"/><path d="M1207.7 790.8c5.7-3.4 22 14.1 36.4 39 14.4 24.9 21.3 47.7 15.6 51l58-21c-7.6 1.8-26.4-18.8-43-47.7s-25.2-55.4-19.7-61.1l-47.4 39.7Z" class="cls-4"/><path d="M1069 930.9c-5.3-9.3-7.9-17.7-5.7-19s-30.2 25.4-30.2 25.4c1.3-.8 5.2 3.4 8.7 9.3 3.4 6 5 11.4 3.7 12.2s37-13.5 37-13.5c-2 1.3-8.1-5.2-13.5-14.4Z" class="cls-3"/><path d="M1107.6 908.6c-7.6-13.1-11.3-25.2-8.2-27s-36.1 30.3-36.1 30.3c2.1-1.2 8.2 5.3 13.5 14.5 5.3 9.2 7.9 17.7 5.8 19s44.2-16.2 44.2-16.2c-3 1.7-11.6-7.5-19.2-20.6Z" class="cls-4"/><path d="M1146.2 886.3c-9.9-17-14.7-32.7-10.7-35s-36.1 30.3-36.1 30.3c3-1.7 11.6 7.5 19.2 20.6 7.6 13.2 11.3 25.2 8.2 27s44.3-16 44.3-16c-4 2.2-15.1-9.8-25-26.9Z" class="cls-3"/><path d="M1135.5 851.3c4-2.2 15.1 9.7 25 26.8 9.8 17 14.6 32.7 10.6 35s44.3-16.1 44.3-16.1c-4.8 2.8-18.6-12-30.7-33-12.1-20.9-18-40.2-13.1-43s-36.1 30.3-36.1 30.3Z" class="cls-4"/><path d="M1223.3 841.8c-14.4-24.8-21.4-47.7-15.6-51s-36.1 30.3-36.1 30.3c4.8-2.8 18.6 11.9 30.7 32.8 12 21 18 40.3 13.1 43s44.3-16 44.3-16c-5.8 3.3-22-14.2-36.5-39Z" class="cls-3"/><path d="M1045.5 958.8c-1.4.8-5.3-3.4-8.7-9.3-3.4-6-5.1-11.4-3.7-12.2s-55 46-55 46l67.4-24.5ZM1429.5 445.4c-52.2-43.7-87-89-80.8-103.9l-48 83.2v-.1c9.3-11 55.1 12.4 102.5 52.1 47.4 39.8 78.4 81 69.2 92l73.5-61.8c-13.7 8.8-64.2-17.7-116.4-61.5ZM1236.4 675.6c-30-25.1-49.9-51-46.2-59.5l-31 53.5.2-.2c5.1-6.1 31 7 57.5 29.3 26.7 22.4 44 45.5 38.9 51.6l-.2.2 47.4-39.7c-7.7 5-36.7-10.1-66.6-35.2Z" class="cls-4"/><path d="M1274.5 630.1c-34.3-28.8-57.2-58.5-53-68.3l-30.8 53.4.1-.1c6-7.3 36.3 8.1 67.5 34.3 31.3 26.2 51.7 53.3 45.6 60.6h-.1l47.2-39.5c-9 5.8-42.2-11.6-76.5-40.4ZM1369.9 516.5c-45.3-38-75.6-77.3-70.1-90.2l-38.4 66.4c8.2-9.7 48.5 10.8 90.1 45.7 41.6 35 68.8 71 60.7 80.7l58.7-49.3c-11.8 7.7-55.7-15.3-101-53.3Z" class="cls-3"/><path d="M1560.6 289.1c-67.2-56.4-112.2-114.7-104.2-134l-57.5 99.5c12-14.4 71.9 16 133.7 68 61.8 51.8 102.2 105.5 90.2 119.8l88-73.8c-17.7 11.2-82.9-23-150.2-79.4Z" class="cls-4"/><path d="M1489.1 374.4c-59-49.5-98.5-100.7-91.5-117.7l-47.8 83v-.1c10.6-12.7 63.5 14.2 118.1 60 54.6 45.9 90.3 93.3 79.7 106l73.3-61.6c-15.5 10-72.8-20-131.8-69.6Z" class="cls-3"/><path d="M1322.2 573.3c-39.8-33.4-66.4-67.9-61.6-79.3l-38.5 66.8.1-.2c7-8.3 41.7 9.4 77.5 39.5 35.9 30 59.3 61.2 52.4 69.5l-.1.1 59-49.5c-10.4 6.7-49-13.5-88.8-46.9Z" class="cls-4"/><path d="M1456.4 155c-8 19.4 37 77.7 104.2 134.2 67.3 56.4 132.5 90.6 150.2 79.3l2.2-1.8c13.7-16.3-32.3-77.5-102.8-136.7-70.5-59-138.7-93.8-152.4-77.5l-1.4 2.5Z" class="cls-2"/><path d="M1532.6 322.6c-61.8-52-121.7-82.4-133.7-68l-1.3 2.1c-7 17 32.5 68.2 91.5 117.7s116.3 79.5 131.8 69.6l1.9-1.6c12-14.3-28.4-68-90.2-119.8Z" class="cls-1"/><path d="M1468 399.6c-54.7-45.8-107.5-72.7-118.2-60l-1 1.9c-6.3 15 28.5 60.2 80.7 104 52.2 43.7 102.7 70.2 116.4 61.4l1.6-1.3v-.1c10.7-12.6-25-60-79.6-105.9Z" class="cls-2"/><path d="M1403.2 476.7c-47.4-39.7-93.2-63-102.5-52.1l-1 1.6c-5.4 13 24.9 52.3 70.2 90.3 45.3 38 89.2 61 101 53.4l1.4-1.2c9.3-11-21.7-52.2-69-92Z" class="cls-1"/><path d="M1351.5 538.4c-41.6-35-82-55.4-90-45.8v.1l-.8 1.3c-4.9 11.4 21.7 46 61.5 79.3 39.8 33.4 78.4 53.6 88.8 46.9l1.1-1 .1-.1c8.1-9.6-19-45.8-60.7-80.7Z" class="cls-2"/><path d="M1299.8 600c-35.9-30-70.6-47.7-77.6-39.4v.2l-.7 1c-4.2 9.8 18.7 39.5 53 68.3 34.3 28.8 67.6 46.2 76.5 40.4l1-.8v-.1c7-8.3-16.4-39.4-52.2-69.5Z" class="cls-1"/><path d="M1258.3 649.4c-31.2-26.2-61.4-41.6-67.5-34.4l-.1.2-.5.9c-3.7 8.5 16.3 34.4 46.2 59.5 29.9 25.1 58.9 40.3 66.6 35.2l.8-.7.1-.1c6-7.3-14.3-34.4-45.6-60.6Z" class="cls-2"/><path d="M1217 698.8c-26.7-22.4-52.4-35.5-57.6-29.3l-.1.1-.4.7c-3.2 7.3 13.8 29.4 39.3 50.8 25.5 21.4 50.3 34.3 56.8 30l.6-.6.2-.1c5.2-6.2-12.2-29.3-38.9-51.7Z" class="cls-1"/><path d="M1175.5 748c-22-18.4-43.3-29.2-47.5-24.1-4.3 5 10 24.2 32 42.6 22 18.5 43.4 29.3 47.6 24.2 4.3-5-10-24.2-32-42.6Z" class="cls-2"/><path d="M1144.5 785c-18.5-15.5-36.5-24.6-40-20.3-3.7 4.3 8.4 20.4 27 36 18.5 15.5 36.5 24.6 40 20.3 3.7-4.3-8.5-20.4-27-36Z" class="cls-1"/><ellipse cx="1108.2" cy="828.4" class="cls-2" rx="8.3" ry="35.6" transform="rotate(-50 1108.2 828.4)"/><path d="M1082.4 859c-11.6-9.7-22.9-15.4-25.1-12.7-2.3 2.7 5.3 12.8 17 22.5 11.6 9.8 22.8 15.5 25 12.8s-5.3-12.8-16.9-22.5Z" class="cls-1"/><ellipse cx="1048.5" cy="899.5" class="cls-2" rx="4.5" ry="19.3" transform="rotate(-50 1048.5 899.5)"/><ellipse cx="1023.5" cy="929.3" class="cls-1" rx="2.9" ry="12.4" transform="rotate(-50 1023.5 929.3)"/><path d="M1128 723.9c4.3-5.1 25.6 5.7 47.6 24.2s36.3 37.6 32 42.7L1255 751c-6.6 4.4-31.3-8.5-56.8-30-25.5-21.3-42.5-43.5-39.3-50.7l-31 53.6Z" class="cls-3"/><path d="M1045.6 903c-8.1-7-13.5-14-11.9-15.9s-19.7 34.2-19.7 34.2c1-1.2 6.1 1.4 11.4 5.8 5.2 4.4 8.6 9 7.6 10.2s30.3-25.4 30.3-25.4c-1.6 1.9-9.5-2.1-17.7-9Z" class="cls-4"/><path d="M1074.2 868.8c-11.6-9.7-19.2-19.8-17-22.5s-23.5 40.8-23.5 40.8c1.6-1.9 9.5 2.1 17.7 9 8.1 6.8 13.4 14 11.9 15.8s36-30.3 36-30.3c-2.2 2.7-13.4-3-25-12.8Z" class="cls-3"/><path d="M1102.8 834.7c-15-12.6-24.9-25.7-22-29.2s-23.5 40.8-23.5 40.8c2.3-2.7 13.5 3 25.1 12.8 11.6 9.7 19.2 19.8 17 22.5s36-30.3 36-30.3c-2.9 3.5-17.5-4-32.6-16.6Z" class="cls-4"/><path d="M1080.8 805.5c3-3.5 17.6 4 32.7 16.6 15 12.6 24.9 25.7 22 29.2s36-30.3 36-30.3c-3.5 4.3-21.5-4.8-40-20.4-18.6-15.5-30.7-31.6-27-36h-.1l-23.6 40.9Z" class="cls-3"/><path d="M1160 766.5c-22-18.4-36.3-37.5-32-42.6s-23.6 40.8-23.6 40.8c3.6-4.3 21.6 4.8 40.1 20.4 18.5 15.5 30.7 31.6 27 36s36.2-30.4 36.2-30.4c-4.3 5.1-25.6-5.7-47.6-24.2Z" class="cls-4"/><path d="M1033 937.3c-1 1.2-6-1.4-11.3-5.8-5.3-4.4-8.7-9-7.7-10.2s-35.8 62-35.8 62l54.8-46ZM1218.3 323.5c-64-23.3-112.2-53.8-111.5-70l-16.6 94.6v-.1c4.9-13.5 56-7.3 114.1 13.9 58.2 21.2 101.3 49.2 96.4 62.7l48-83.1c-9.8 12.9-66.4 5.3-130.4-18ZM1115.5 605.9c-36.6-13.4-64.3-31-63.7-40.2l-10.7 60.9v-.2c2.8-7.6 31.5-4 64.1 7.8 32.7 12 57 27.7 54.2 35.2l-.1.2 30.9-53.5c-5.5 7.4-38 3.1-74.7-10.2Z" class="cls-3"/><path d="M1135.8 550c-42-15.2-73.7-35.3-73.1-46l-10.7 60.7v-.2c3.2-8.8 37-4.7 75.2 9.2 38.4 14 66.8 32.5 63.6 41.4l-.1.1 30.8-53.3c-6.4 8.5-43.6 3.5-85.7-11.8ZM1186.6 410.6c-55.6-20.2-97.4-46.7-96.7-60.8l-13.4 75.6c4.4-12 49.2-6.4 100.3 12.1 51 18.6 89 43.3 84.7 55.1v.1l38.3-66.5c-8.5 11.3-57.6 4.7-113.2-15.6Z" class="cls-4"/><path d="M1288 131.8c-82.5-30-144.6-69.5-143.8-90.4l-20 113.2c6.5-17.6 73.1-9.4 149 18.2 75.8 27.6 132.1 64.2 125.7 81.7l57.5-99.5c-12.8 16.6-85.8 6.8-168.3-23.2Z" class="cls-3"/><path d="M1250 236.4c-72.4-26.4-127-61-126.2-79.3l-16.6 94.2c5.7-15.5 64.6-8.3 131.6 16 67 24.4 116.7 56.8 111 72.3l47.9-82.9c-11.2 14.6-75.2 6-147.7-20.3Z" class="cls-4"/><path d="M1161.2 480.4c-48.8-17.8-85.6-41.1-85-53.5l-13.3 75.9v-.1c3.7-10.2 42.4-5.5 86.4 10.5 44 16 76.6 37.2 72.9 47.4v.2l38.4-66.8c-7.4 10-50.5 4.1-99.4-13.6Z" class="cls-3"/><path d="M1144.2 41.4c-.8 21 61.3 60.4 143.9 90.4 82.5 30 155.5 39.8 168.3 23.2l1.4-2.5c7.3-20-56.9-61.7-143.3-93.2-86.5-31.5-162.5-40.8-169.8-20.7l-.5 2.8Z" class="cls-1"/><path d="M1273.2 172.8c-75.9-27.6-142.5-35.8-149-18.2l-.3 2.5c-.9 18.3 53.7 53 126.1 79.3 72.5 26.3 136.5 35 147.7 20.3l1.2-2.1c6.4-17.6-49.9-54.2-125.7-81.8Z" class="cls-2"/><path d="M1238.8 267.3c-67-24.3-126-31.5-131.5-16l-.4 2.2c-.8 16.2 47.4 46.7 111.4 70 64 23.3 120.6 30.9 130.4 18l1.1-1.9c5.7-15.5-44-47.9-111-72.3Z" class="cls-1"/><path d="M1204.3 361.9c-58.1-21.2-109.2-27.4-114.1-14v.2l-.3 1.7c-.7 14 41.1 40.6 96.7 60.8 55.6 20.3 104.7 26.8 113.2 15.6l.9-1.5v-.1c5-13.5-38.2-41.5-96.4-62.7Z" class="cls-2"/><path d="M1176.8 437.6c-51-18.6-96-24.1-100.2-12.3v.1l-.3 1.5c-.7 12.4 36 35.7 85 53.5 48.8 17.7 91.9 23.5 99.3 13.7l.8-1.4c4.4-12-33.5-36.6-84.6-55.1Z" class="cls-1"/><path d="M1149.3 513.2c-44-16-82.7-20.7-86.4-10.6v.2l-.2 1.2c-.6 10.7 31 30.8 73.1 46 42.1 15.4 79.3 20.4 85.7 11.8l.6-1v-.2c3.8-10.2-28.8-31.4-72.8-47.4Z" class="cls-2"/><path d="M1127.2 573.7c-38.3-14-72-18-75.2-9.2v.2l-.2 1c-.6 9.3 27 26.8 63.8 40.1 36.6 13.4 69 17.7 74.6 10.3l.5-1c3.3-9-25.1-27.4-63.5-41.4Z" class="cls-1"/><path d="M1105.2 634.2c-32.6-11.9-61.3-15.4-64-7.8l-.1.2-.2.8c-.5 7.9 23 22.8 54.3 34.2 31.3 11.4 59 15 63.7 8.7l.4-.7v-.2c2.8-7.5-21.4-23.3-54-35.2Z" class="cls-2"/><path d="M1083.2 694.8c-27-9.9-50.7-12.8-53-6.5-2.3 6.2 17.8 19.3 44.8 29.1 27 9.8 50.7 12.7 53 6.5 2.2-6.3-17.8-19.3-44.8-29.1Z" class="cls-1"/><path d="M1066.7 740.1c-22.8-8.2-42.8-10.7-44.7-5.4-1.9 5.3 15 16.2 37.7 24.5 22.8 8.3 42.8 10.7 44.7 5.5 2-5.3-15-16.3-37.7-24.6Z" class="cls-2"/><ellipse cx="1047.3" cy="793.3" class="cls-1" rx="8.3" ry="35.6" transform="rotate(-70 1047.3 793.3)"/><path d="M1033.6 831c-14.2-5.3-26.7-6.8-28-3.5-1.1 3.3 9.4 10.2 23.7 15.4 14.2 5.2 26.8 6.7 28 3.4 1.2-3.3-9.4-10.2-23.7-15.4Z" class="cls-2"/><ellipse cx="1015.6" cy="880.5" class="cls-1" rx="4.5" ry="19.3" transform="rotate(-70 1015.6 880.5)"/><ellipse cx="1002.3" cy="917" class="cls-2" rx="2.9" ry="12.4" transform="rotate(-70 1002.3 917)"/><path d="M1030.2 688.3c2.3-6.3 26-3.4 53 6.5s47 22.8 44.7 29l31-53.5c-4.7 6.4-32.4 2.7-63.7-8.7-31.3-11.4-54.8-26.3-54.3-34.2l-10.7 60.9Z" class="cls-4"/><path d="M1014 884.7c-10-3.6-17.4-8.5-16.5-10.8s-6.9 38.9-6.9 38.9c.5-1.5 6.2-.8 12.7 1.5 6.4 2.4 11.2 5.5 10.7 7s19.7-34.2 19.7-34.2c-.9 2.3-9.7 1.2-19.7-2.4Z" class="cls-3"/><path d="M1029.3 842.9c-14.3-5.2-24.8-12.1-23.6-15.4s-8.3 46.4-8.3 46.4c1-2.3 9.7-1.2 19.7 2.4 10 3.6 17.4 8.5 16.6 10.8s23.6-40.8 23.6-40.8c-1.2 3.3-13.8 1.8-28-3.4Z" class="cls-4"/><path d="M1044.5 801c-18.5-6.7-32.2-15.6-30.7-19.9s-8.2 46.4-8.2 46.4c1.3-3.3 13.8-1.8 28 3.4 14.3 5.2 24.9 12 23.7 15.4s23.5-40.8 23.5-40.8c-1.5 4.3-17.8 2.3-36.3-4.5Z" class="cls-3"/><path d="M1013.8 781.1c1.6-4.3 17.9-2.3 36.4 4.4 18.5 6.8 32.2 15.7 30.6 20s23.6-40.8 23.6-40.8c-2 5.3-22 2.8-44.7-5.5-22.7-8.2-39.6-19.2-37.7-24.5s-8.2 46.4-8.2 46.4Z" class="cls-4"/><path d="M1075 717.4c-27-9.8-47-22.9-44.8-29.1s-8.2 46.4-8.2 46.4c2-5.3 22-2.8 44.7 5.4 22.7 8.3 39.6 19.3 37.7 24.6s23.5-40.8 23.5-40.8c-2.3 6.2-26 3.3-53-6.5Z" class="cls-3"/><path d="M1014 921.3c-.6 1.5-6.2.8-12.7-1.6-6.4-2.3-11.2-5.4-10.7-7s-12.4 70.6-12.4 70.6l35.8-62ZM978.2 281.2c-68.2 0-123.9-12.3-128.7-27.7L866 348v-.1c0-14.4 50.2-26 112-26 62 0 112 11.6 112 26l16.8-94.5c-4.9 15.4-60.6 27.7-128.7 27.7ZM978.2 581.6c-39 0-71-7-73.7-15.9l10.8 60.9v-.2c0-8 28.1-14.6 62.9-14.6 34.7 0 62.9 6.5 62.9 14.6v.2l10.7-60.9c-2.6 9-34.6 16-73.6 16Z" class="cls-4"/><path d="M978.2 522.3c-44.8 0-81.5-8-84.6-18.3l10.7 60.7v-.2c0-9.4 33-17 73.9-17 40.8 0 73.8 7.6 73.8 17v.2l10.7-60.7c-3 10.2-39.7 18.3-84.5 18.3ZM978.2 373.9c-59.2 0-107.6-10.6-111.7-24l13.3 75.5v-.1c0-12.6 44-22.8 98.4-22.8 54.3 0 98.4 10.2 98.4 22.8v.1l13.3-75.6c-4.2 13.5-52.6 24-111.7 24Z" class="cls-3"/><path d="M978.2 77.1c-87.9 0-159.8-15.7-166.1-35.7l20 113.2c0-18.7 65.4-33.8 146-33.8 80.8 0 146.2 15.1 146.2 33.8l20-113.2c-6.4 20-78.3 35.7-166.1 35.7Z" class="cls-4"/><path d="M978.2 188.4c-77.1 0-140.2-13.8-145.7-31.3l16.6 94.2c0-16.5 57.8-30 129-30 71.4 0 129.2 13.5 129.2 30l16.6-94.2c-5.6 17.5-68.6 31.3-145.7 31.3Z" class="cls-3"/><path d="M978.2 448c-52 0-94.5-9.3-98.2-21l13.4 75.8v-.2c0-10.8 38-19.6 84.8-19.6s84.7 8.8 84.7 19.6v.2l13.4-75.9c-3.6 11.8-46.2 21.2-98.1 21.2Z" class="cls-4"/><path d="M812 41.4c6.4 20 78.3 35.7 166.2 35.7 87.8 0 159.7-15.7 166-35.7l.5-2.8c0-21.3-74.6-38.6-166.6-38.6S811.5 17.3 811.5 38.6l.5 2.8Z" class="cls-2"/><path d="M978.2 120.8c-80.7 0-146.2 15.1-146.2 33.8l.5 2.5c5.5 17.5 68.6 31.3 145.6 31.3s140.2-13.8 145.7-31.3l.5-2.5c0-18.7-65.4-33.9-146.2-33.9Z" class="cls-1"/><path d="M978.2 221.4c-71.3 0-129.1 13.4-129.1 29.9l.3 2.2c4.9 15.4 60.6 27.7 128.7 27.7 68.2 0 124-12.3 128.7-27.7l.4-2.2c0-16.5-57.8-30-129-30Z" class="cls-2"/><path d="M978.2 322c-62 0-112 11.6-112 26l.2 1.8c4.2 13.5 52.6 24.1 111.7 24.1 59.2 0 107.6-10.6 111.7-24l.4-1.8v-.1c0-14.4-50.2-26-112-26Z" class="cls-1"/><path d="M978.2 402.5c-54.4 0-98.4 10.2-98.4 22.8v.1l.3 1.5c3.6 11.8 46 21.2 98 21.2s94.5-9.4 98.2-21.2l.2-1.5v-.1c0-12.6-44-22.8-98.3-22.8Z" class="cls-2"/><path d="M978.2 483c-46.8 0-84.8 8.8-84.8 19.6v.2l.2 1.2c3.1 10.2 39.8 18.3 84.6 18.3 44.7 0 81.4-8 84.5-18.2l.2-1.3v-.1c0-10.9-38-19.7-84.7-19.7Z" class="cls-1"/><path d="M978.2 547.4c-40.8 0-73.9 7.7-73.9 17.1v.2l.2 1c2.7 9 34.6 16 73.7 16 39 0 71-7 73.6-16l.2-1v-.2c0-9.4-33-17-73.8-17Z" class="cls-2"/><path d="M978.2 611.8c-34.8 0-63 6.6-63 14.6v.2l.2.8c2.2 7.6 29.4 13.6 62.8 13.6 33.3 0 60.5-6 62.7-13.6l.2-.8v-.2c0-8-28.2-14.6-63-14.6Z" class="cls-1"/><path d="M978.2 676.2c-28.8 0-52 5.4-52 12 0 6.7 23.2 12.1 52 12.1 28.7 0 52-5.4 52-12 0-6.7-23.3-12-52-12Z" class="cls-2"/><path d="M978.2 724.5c-24.3 0-43.9 4.6-43.9 10.2s19.6 10.1 43.9 10.1c24.2 0 43.8-4.5 43.8-10.1s-19.6-10.2-43.8-10.2Z" class="cls-1"/><ellipse cx="978.2" cy="781.1" class="cls-2" rx="35.6" ry="8.3"/><path d="M978.2 821.1c-15.2 0-27.5 2.9-27.5 6.4 0 3.5 12.3 6.4 27.5 6.4 15.1 0 27.4-2.9 27.4-6.4 0-3.5-12.3-6.4-27.4-6.4Z" class="cls-1"/><ellipse cx="978.2" cy="873.9" class="cls-2" rx="19.3" ry="4.5"/><ellipse cx="978.2" cy="912.8" class="cls-1" rx="12.4" ry="2.9"/><path d="M926.1 688.3c0-6.7 23.3-12 52-12 28.8 0 52 5.3 52 12l10.8-60.9c-2.2 7.6-29.4 13.6-62.8 13.6-33.3 0-60.5-6-62.7-13.6l10.7 60.9Z" class="cls-3"/><path d="M978.2 878.4c-10.7 0-19.3-2-19.3-4.5s6.8 38.9 6.8 38.9c0-1.6 5.6-2.9 12.5-2.9s12.4 1.3 12.4 2.9l6.9-38.9c0 2.5-8.7 4.5-19.3 4.5Z" class="cls-4"/><path d="M978.2 833.9c-15.2 0-27.5-2.9-27.5-6.4s8.2 46.4 8.2 46.4c0-2.5 8.6-4.5 19.3-4.5 10.6 0 19.2 2 19.2 4.5s8.2-46.4 8.2-46.4c0 3.5-12.3 6.4-27.4 6.4Z" class="cls-3"/><path d="M978.2 789.4c-19.7 0-35.7-3.7-35.7-8.3l8.2 46.4c0-3.5 12.3-6.4 27.5-6.4 15.1 0 27.4 2.9 27.4 6.4s8.2-46.4 8.2-46.4c0 4.6-16 8.3-35.6 8.3Z" class="cls-4"/><path d="M942.5 781c0-4.5 16-8.2 35.6-8.2 19.7 0 35.7 3.7 35.7 8.3l8.2-46.4c0 5.6-19.7 10.1-43.9 10.1s-43.8-4.5-43.8-10.1 8.2 46.4 8.2 46.4Z" class="cls-3"/><path d="M978.2 700.3c-28.8 0-52-5.4-52-12s8.1 46.4 8.1 46.4c0-5.6 19.7-10.2 43.9-10.2s43.8 4.6 43.8 10.2 8.2-46.4 8.2-46.4c0 6.6-23.3 12-52 12Z" class="cls-4"/><path d="M990.6 912.8c0 1.6-5.6 2.9-12.4 2.9-7 0-12.5-1.3-12.5-3l12.4 70.6 12.5-70.5ZM738 323.5c-64 23.3-120.6 30.9-130.4 18l48 83.2v-.1c-5-13.5 38.2-41.5 96.4-62.7 58.1-21.1 109.2-27.4 114.1-14v.2l-16.7-94.6c.8 16.2-47.4 46.7-111.4 70ZM840.8 605.9C804 619.1 771.7 623.5 766 616l31 53.5-.2-.2c-2.7-7.5 21.5-23.3 54.2-35.2 32.6-11.9 61.3-15.4 64.1-7.8v.2l-10.7-60.9c.6 9.3-27 26.8-63.8 40.1Z" class="cls-3"/><path d="M820.5 550c-42.1 15.4-79.3 20.4-85.7 11.9l30.8 53.3v-.2c-3.3-8.8 25.1-27.3 63.5-41.3 38.3-14 72-18 75.2-9.2v.2L893.6 504c.6 10.7-31 30.7-73.1 46ZM769.7 410.6C714.1 431 665 437.5 656.5 426.3l38.4 66.5v-.1c-4.4-11.8 33.5-36.5 84.6-55 51-18.6 96-24.1 100.3-12.3v.1l-13.3-75.6c.6 14-41.2 40.6-96.8 60.8Z" class="cls-4"/><path d="M668.2 131.8c-82.5 30-155.5 39.8-168.3 23.2l57.5 99.6C551 237 607.3 200.3 683 172.7c75.9-27.6 142.5-35.8 149-18.2L812 41.4c.8 21-61.3 60.3-143.9 90.4Z" class="cls-3"/><path d="M706.3 236.4c-72.4 26.3-136.5 35-147.6 20.3l47.8 83v-.1c-5.7-15.5 44-47.9 111-72.3 67-24.3 126-31.5 131.6-16l-16.6-94.2c.8 18.3-53.8 53-126.2 79.3Z" class="cls-4"/><path d="M795 480.4c-48.7 17.7-91.9 23.5-99.3 13.6l38.5 66.8v-.2c-3.8-10.2 28.9-31.4 72.8-47.4 44-16 82.7-20.7 86.4-10.6v.2l-13.3-75.9c.6 12.4-36.2 35.7-85 53.5Z" class="cls-3"/><path d="M500 155c12.7 16.6 85.7 6.8 168.2-23.2 82.6-30 144.7-69.5 143.9-90.4l-.5-2.8c-7.3-20-83.3-10.8-169.8 20.7-86.4 31.5-150.6 73.2-143.3 93.2l1.4 2.5Z" class="cls-1"/><path d="M683.1 172.8c-75.8 27.6-132 64.2-125.7 81.7l1.3 2.3c11.1 14.5 75.2 6 147.6-20.4 72.4-26.4 127-61 126.2-79.3l-.5-2.5c-6.3-17.6-73-9.4-148.8 18.2Z" class="cls-2"/><path d="M717.6 267.3c-67 24.4-116.8 56.8-111.1 72.3l1 1.9c10 12.9 66.5 5.3 130.5-18s112.2-53.8 111.5-70l-.4-2.2c-5.7-15.5-64.6-8.4-131.5 16Z" class="cls-1"/><path d="M752 361.9c-58.2 21.2-101.3 49.2-96.4 62.7l1 1.6c8.4 11.2 57.5 4.7 113.1-15.6 55.6-20.2 97.4-46.7 96.8-60.8l-.3-1.7v-.1c-5-13.5-56-7.3-114.2 13.9Z" class="cls-2"/><path d="M779.5 437.6c-51 18.5-89 43.2-84.7 55l.1.1.8 1.4c7.4 9.8 50.6 4 99.4-13.7 48.8-17.8 85.6-41.1 85-53.5l-.3-1.5c-4.3-12-49.2-6.4-100.3 12.2Z" class="cls-1"/><path d="M807 513.2c-44 16-76.6 37.2-72.9 47.4v.2l.7 1c6.4 8.6 43.6 3.6 85.7-11.7 42-15.3 73.7-35.4 73.1-46l-.2-1.3v-.1c-3.7-10.2-42.4-5.5-86.4 10.5Z" class="cls-2"/><path d="M829 573.7c-38.2 14-66.7 32.5-63.5 41.3l.1.2.5.9c5.6 7.4 38 3.1 74.7-10.2 36.7-13.4 64.3-31 63.7-40.2l-.1-1v-.2c-3.3-8.8-37-4.7-75.3 9.2Z" class="cls-1"/><path d="M851.1 634.2c-32.7 12-56.9 27.7-54.1 35.2v.2l.4.7c4.7 6.4 32.4 2.7 63.7-8.7 31.3-11.4 54.8-26.3 54.3-34.2l-.1-.8-.1-.2c-2.7-7.6-31.5-4-64.1 7.8Z" class="cls-2"/><path d="M873.1 694.8c-27 9.8-47 22.8-44.7 29 2.2 6.3 26 3.4 53-6.4s47-22.9 44.7-29.1c-2.3-6.3-26-3.4-53 6.5Z" class="cls-1"/><path d="M889.6 740.1c-22.7 8.3-39.6 19.3-37.7 24.6 2 5.2 22 2.8 44.7-5.5 22.7-8.3 39.6-19.2 37.7-24.5-2-5.3-22-2.8-44.7 5.4Z" class="cls-2"/><ellipse cx="909" cy="793.3" class="cls-1" rx="35.6" ry="8.3" transform="rotate(-20 909 793.3)"/><path d="M922.7 831c-14.3 5.1-24.9 12-23.7 15.3 1.2 3.3 13.8 1.8 28-3.4 14.3-5.2 24.9-12.1 23.7-15.4s-13.8-1.8-28 3.4Z" class="cls-2"/><ellipse cx="940.7" cy="880.5" class="cls-1" rx="19.3" ry="4.5" transform="rotate(-20 940.7 880.5)"/><ellipse cx="954" cy="917" class="cls-2" rx="12.4" ry="2.9" transform="rotate(-20 954 917)"/><path d="M828.4 723.9c-2.3-6.3 17.7-19.3 44.7-29.1 27-9.9 50.7-12.8 53-6.5l-10.7-60.9c.5 7.9-23 22.8-54.3 34.2-31.4 11.4-59 15.1-63.7 8.7l31 53.6Z" class="cls-4"/><path d="M942.3 884.7c-10 3.6-18.8 4.7-19.7 2.4s19.7 34.2 19.7 34.2c-.5-1.5 4.3-4.6 10.7-7 6.5-2.3 12.2-3 12.7-1.5s-6.8-38.9-6.8-38.9c.8 2.3-6.6 7.2-16.7 10.8Z" class="cls-3"/><path d="M927 842.9c-14.2 5.2-26.8 6.7-28 3.4s23.6 40.8 23.6 40.8c-.8-2.3 6.6-7.1 16.6-10.8s18.8-4.7 19.6-2.4-8.1-46.4-8.1-46.4c1.2 3.3-9.4 10.2-23.7 15.4Z" class="cls-4"/><path d="M911.8 801c-18.5 6.8-34.8 8.8-36.3 4.5s23.5 40.8 23.5 40.8c-1.2-3.3 9.4-10.2 23.7-15.4s26.8-6.7 28-3.4-8.2-46.4-8.2-46.4c1.5 4.3-12.2 13.2-30.7 20Z" class="cls-3"/><path d="M875.5 805.5c-1.6-4.3 12.2-13.2 30.7-20 18.5-6.7 34.7-8.7 36.3-4.4s-8.2-46.4-8.2-46.4c2 5.2-15 16.2-37.7 24.5-22.8 8.3-42.7 10.7-44.7 5.5s23.6 40.8 23.6 40.8Z" class="cls-4"/><path d="M881.4 717.4c-27 9.8-50.8 12.7-53 6.5s23.5 40.8 23.5 40.8c-1.9-5.3 15-16.3 37.7-24.6 22.8-8.2 42.8-10.7 44.7-5.4s-8.2-46.4-8.2-46.4c2.3 6.2-17.7 19.3-44.7 29Z" class="cls-3"/><path d="M965.7 912.8c.5 1.5-4.2 4.6-10.7 7-6.4 2.3-12.1 3-12.6 1.5s35.8 62 35.8 62l-12.5-70.5ZM526.8 445.4c-52.2 43.8-102.7 70.3-116.4 61.5l73.6 61.8c-9.3-11 21.7-52.2 69-92 47.5-39.7 93.4-63 102.6-52.1l-48-83.1c6.2 15-28.6 60.2-80.8 104ZM720 675.6c-30 25.1-59 40.3-66.7 35.1l47.4 39.8-.2-.1c-5.1-6.2 12.3-29.3 38.9-51.7 26.6-22.3 52.4-35.4 57.5-29.3l.2.2-31-53.5c3.7 8.5-16.2 34.4-46.1 59.5Z" class="cls-4"/><path d="M681.8 630.1c-34.3 28.8-67.6 46.2-76.5 40.4l47.2 39.6-.1-.1c-6-7.3 14.3-34.4 45.6-60.6 31.2-26.2 61.4-41.6 67.5-34.3l.1.1-30.8-53.4c4.2 9.8-18.7 39.6-53 68.3ZM586.4 516.5c-45.3 38-89.2 61-101 53.4l58.8 49.3-.1-.1c-8.1-9.6 19-45.8 60.7-80.7 41.6-35 82-55.4 90-45.8l.1.1-38.4-66.4c5.5 13-24.8 52.2-70 90.2Z" class="cls-3"/><path d="M395.7 289.1c-67.3 56.5-132.5 90.7-150.2 79.4l88 74v-.1c-12-14.3 28.4-68 90.2-119.8 61.8-52 121.7-82.4 133.7-68L500 155c8 19.4-37 77.7-104.2 134.1Z" class="cls-4"/><path d="M467.2 374.4c-59 49.5-116.3 79.5-131.8 69.6l73.4 61.6c-10.7-12.7 25-60.1 79.6-106 54.6-45.8 107.5-72.7 118-60h.1l-47.8-82.9c7 17-32.5 68.1-91.5 117.7Z" class="cls-3"/><path d="M634.1 573.3c-39.8 33.4-78.4 53.6-88.8 46.9l59 49.5v-.1c-7-8.3 16.4-39.4 52.3-69.5 35.8-30.1 70.5-47.8 77.5-39.5v.2L695.8 494c4.8 11.4-21.8 45.9-61.6 79.3Z" class="cls-4"/><path d="M245.5 368.6c17.7 11.2 82.9-23 150.2-79.5 67.3-56.4 112.2-114.7 104.2-134l-1.4-2.6c-13.7-16.3-82 18.4-152.4 77.5-70.5 59.2-116.5 120.4-102.8 136.7l2.2 1.8Z" class="cls-2"/><path d="M423.7 322.6c-61.8 51.8-102.2 105.5-90.2 119.8l2 1.6c15.4 10 72.7-20 131.7-69.6 59-49.5 98.5-100.7 91.5-117.7l-1.3-2.1c-12-14.4-71.9 16-133.7 68Z" class="cls-1"/><path d="M488.4 399.6c-54.6 45.9-90.3 93.3-79.7 106l1.7 1.3c13.7 8.8 64.2-17.7 116.4-61.5 52.2-43.7 87-89 80.8-103.9l-1-1.9h-.1c-10.6-12.7-63.5 14.2-118.1 60Z" class="cls-2"/><path d="M553 476.7c-47.3 39.8-78.3 81-69 92l1.4 1.2c11.8 7.6 55.7-15.4 101-53.4s75.6-77.3 70.1-90.2l-.9-1.6v-.1c-9.2-11-55.1 12.4-102.5 52.1Z" class="cls-1"/><path d="M604.8 538.4c-41.6 35-68.8 71-60.7 80.7l1.3 1c10.3 6.8 48.9-13.4 88.7-46.8 39.8-33.4 66.4-67.9 61.6-79.3l-.8-1.3c-8.2-9.7-48.5 10.8-90 45.7Z" class="cls-2"/><path d="M656.6 600c-35.9 30.2-59.3 61.3-52.3 69.6l1 .9c9 5.8 42.2-11.6 76.5-40.4 34.3-28.8 57.2-58.5 53-68.3l-.6-1-.1-.2c-7-8.3-41.7 9.4-77.5 39.5Z" class="cls-1"/><path d="M698 649.4c-31.3 26.2-51.7 53.3-45.6 60.6h.1l.8.8c7.7 5 36.7-10.1 66.6-35.2 30-25.1 50-51 46.2-59.5l-.5-1c-6.2-7.3-36.4 8-67.6 34.3Z" class="cls-2"/><path d="M739.4 698.8c-26.7 22.3-44 45.4-38.9 51.6l.2.1.6.5c6.5 4.4 31.3-8.5 56.8-30 25.5-21.3 42.5-43.4 39.3-50.7l-.4-.7v-.1c-5.3-6.2-31 7-57.7 29.3Z" class="cls-1"/><path d="M780.8 748c-22 18.5-36.4 37.6-32.1 42.7 4.2 5.1 25.5-5.7 47.5-24.2 22-18.4 36.4-37.5 32.1-42.6-4.2-5.1-25.5 5.7-47.5 24.2Z" class="cls-2"/><path d="M811.8 785c-18.5 15.6-30.6 31.7-27 36 3.6 4.3 21.5-4.8 40-20.4 18.6-15.5 30.7-31.6 27.1-36-3.6-4.2-21.5 5-40 20.5Z" class="cls-1"/><ellipse cx="848.2" cy="828.4" class="cls-2" rx="35.6" ry="8.3" transform="rotate(-40 848.2 828.4)"/><path d="M873.9 859c-11.6 9.8-19.2 20-17 22.6 2.3 2.7 13.5-3 25.2-12.8 11.6-9.7 19.2-19.8 17-22.5s-13.6 3-25.2 12.8Z" class="cls-1"/><ellipse cx="907.8" cy="899.5" class="cls-2" rx="19.3" ry="4.5" transform="rotate(-40 907.8 899.5)"/><ellipse cx="932.8" cy="929.3" class="cls-1" rx="12.4" ry="2.9" transform="rotate(-40 932.8 929.3)"/><path d="M748.6 790.8c-4.2-5.1 10.2-24.2 32.2-42.7 22-18.5 43.3-29.3 47.5-24.2l-30.9-53.6c3.2 7.3-13.8 29.4-39.3 50.8-25.5 21.4-50.2 34.3-56.8 30l47.3 39.7Z" class="cls-3"/><path d="M910.7 903c-8.2 6.8-16 10.8-17.6 8.9s30.2 25.4 30.2 25.4c-1-1.2 2.4-5.8 7.7-10.2 5.2-4.4 10.3-7 11.3-5.8s-19.7-34.2-19.7-34.2c1.6 2-3.7 9-11.9 15.8Z" class="cls-4"/><path d="M882 868.8c-11.5 9.8-22.8 15.5-25 12.8s36 30.3 36 30.3c-1.5-1.9 3.8-9 12-15.8 8.1-6.9 16-10.9 17.6-9S899 846.3 899 846.3c2.3 2.7-5.3 12.8-17 22.5Z" class="cls-3"/><path d="M853.5 834.7c-15.1 12.7-29.7 20.1-32.6 16.6s36 30.3 36 30.3c-2.2-2.7 5.4-12.8 17-22.5 11.6-9.8 22.9-15.5 25.1-12.8s-23.5-40.8-23.5-40.8c2.9 3.5-7 16.6-22 29.2Z" class="cls-4"/><path d="M820.9 851.3c-3-3.5 6.9-16.6 22-29.2 15-12.7 29.6-20 32.6-16.6s-23.6-40.8-23.6-40.8c3.6 4.3-8.5 20.4-27 36-18.6 15.5-36.5 24.6-40.1 20.3s36 30.3 36 30.3Z" class="cls-3"/><path d="M796.2 766.5c-22 18.5-43.3 29.3-47.5 24.2s36 30.3 36 30.3c-3.5-4.3 8.6-20.4 27.1-36 18.5-15.5 36.5-24.6 40.1-20.3s-23.5-40.8-23.5-40.8c4.2 5-10.1 24.2-32.1 42.6Z" class="cls-4"/><path d="M942.3 921.3c1 1.2-2.4 5.8-7.6 10.2-5.3 4.4-10.4 7-11.4 5.8s54.9 46 54.9 46l-35.9-62ZM370 632.3c-34 59-72.5 101.1-88.3 97.6l90.3 32.8h-.1c-12.4-7.2 2.6-56.4 33.5-110 31-53.6 66.1-91.2 78.5-84h.1l-73.6-61.8c11 12-6.3 66.4-40.4 125.4ZM630.3 782.5c-19.6 33.8-41.6 58-50.6 55.8l58 21.2-.1-.1c-7-4 1.5-31.7 18.8-61.8 17.4-30.1 37.1-51.2 44.1-47.2l.2.1-47.4-39.7c6.4 6.7-3.5 37.9-23 71.7Z" class="cls-3"/><path d="M578.9 752.8c-22.4 38.8-47.7 66.5-58 64l57.8 21.1h-.2c-8.1-4.8 1.8-37.2 22.2-72.5 20.3-35.3 43.5-60.1 51.7-55.4h.1l-47.2-39.5c7.3 7.7-4 43.5-26.4 82.3ZM450.4 678.6c-29.6 51.2-63 87.8-76.7 84.7l72.1 26.3h-.1c-11-6.4 2.3-49.6 29.5-96.7 27.1-47 58-80 68.9-73.8l-58.7-49.3c9.5 10.4-5.5 57.6-35 108.8Z" class="cls-4"/><path d="M193.4 530.2c-44 76.1-93.5 130.5-114 126l108 39.3c-16.2-9.3 3.4-73.6 43.7-143.5 40.4-69.9 86.2-119 102.4-109.6l-88-73.9c14.1 15.5-8.2 85.7-52.1 161.7Z" class="cls-3"/><path d="M289.8 585.9c-38.6 66.7-82.1 114.5-100 110.5l89.9 32.7c-14.4-8.3 3-65 38.6-126.7 35.6-61.8 76.1-105.1 90.4-96.9L335.5 444c12.5 13.6-7.1 75.1-45.6 141.9Z" class="cls-4"/><path d="M514.6 715.7c-26 45-55.3 77.2-67.4 74.4l72.4 26.4-.1-.1c-9.4-5.4 2-42.7 25.4-83.2s50-69 59.4-63.6v.1l-59-49.5c8.5 9-4.7 50.5-30.7 95.5Z" class="cls-3"/><path d="M79.4 656.2c20.5 4.5 70-49.9 114-126 43.9-76 66.2-146.2 52-161.7l-2.1-1.8c-18.5-10.7-70.7 45.3-116.7 125-46 79.6-68.4 152.9-50 163.5l2.8 1Z" class="cls-1"/><path d="M231.1 552c-40.3 70-59.9 134.2-43.7 143.5l2.4.9c17.9 4 61.4-43.8 100-110.5 38.5-66.8 58-128.3 45.6-141.9l-1.9-1.6c-16.2-9.3-62 39.8-102.4 109.6Z" class="cls-2"/><path d="M318.3 602.4c-35.6 61.7-53 118.4-38.7 126.7h.1l2 .7c15.8 3.6 54.3-38.6 88.4-97.5 34-59 51.3-113.4 40.3-125.4l-1.6-1.3c-14.4-8.3-54.9 35-90.5 96.8Z" class="cls-1"/><path d="M405.4 652.7c-30.9 53.5-46 102.8-33.5 110l1.8.6c13.7 3.1 47.1-33.5 76.7-84.7 29.5-51.2 44.6-98.4 35-108.8l-1.4-1.1c-12.5-7.2-47.6 30.4-78.6 84Z" class="cls-2"/><path d="M475.2 693c-27.2 47-40.4 90.2-29.5 96.5h.1l1.4.6c12 2.8 41.4-29.4 67.4-74.4 26-45 39.2-86.5 30.8-95.5l-1.2-1h-.1c-11-6.4-41.8 26.7-69 73.7Z" class="cls-1"/><path d="M544.9 733.2c-23.4 40.5-34.8 77.8-25.4 83.2h.1l1.2.5c10.4 2.4 35.7-25.3 58-64.1 22.4-38.8 33.8-74.5 26.5-82.3l-1-.8v-.1c-9.5-5.4-36 23-59.4 63.6Z" class="cls-2"/><path d="M600.6 765.4c-20.3 35.3-30.2 67.8-22 72.5h.1l1 .4c9 2.1 31-22 50.6-55.8 19.5-33.8 29.4-65 23-71.7l-.8-.7-.1-.1c-8.2-4.7-31.4 20-51.7 55.4Z" class="cls-1"/><path d="M656.4 797.6c-17.4 30-25.8 57.7-18.8 61.8h.2l.7.3c7.7 1.9 26.5-18.7 43.2-47.5 16.6-28.9 25-55.5 19.6-61.2l-.6-.5-.2-.1c-7-4-26.7 17-44 47.2Z" class="cls-2"/><path d="M712.2 829.8c-14.4 24.9-21.3 47.7-15.6 51 5.8 3.4 22-14.1 36.5-39 14.3-24.9 21.3-47.7 15.5-51-5.7-3.4-22 14.1-36.4 39Z" class="cls-1"/><path d="M754 854c-12 20.9-18 40.2-13.1 43 4.8 2.8 18.6-12 30.7-33 12.1-20.9 18-40.1 13.1-43-4.8-2.7-18.6 12-30.7 33Z" class="cls-2"/><ellipse cx="803" cy="882.2" class="cls-1" rx="35.6" ry="8.3" transform="rotate(-60 803 882.2)"/><path d="M837.7 902.2c-7.6 13.2-11.3 25.2-8.2 27 3 1.8 11.6-7.5 19.2-20.6s11.3-25.2 8.2-27c-3-1.7-11.6 7.5-19.2 20.6Z" class="cls-2"/><ellipse cx="883.4" cy="928.6" class="cls-1" rx="19.3" ry="4.5" transform="rotate(-60 883.4 928.6)"/><ellipse cx="917" cy="948" class="cls-2" rx="12.4" ry="2.9" transform="rotate(-60 917 948)"/><path d="M696.6 880.9c-5.7-3.4 1.2-26.2 15.6-51.1 14.4-24.9 30.7-42.4 36.4-39L701.3 751c5.4 5.7-3 32.3-19.6 61.1-16.7 28.9-35.5 49.5-43.2 47.6l58.1 21.1Z" class="cls-4"/><path d="M887.3 930.9c-5.4 9.2-11.4 15.6-13.5 14.4s37 13.5 37 13.5c-1.3-.8.3-6.2 3.8-12.2s7.3-10.1 8.7-9.3-30.3-25.4-30.3-25.4c2.2 1.3-.4 9.7-5.7 19Z" class="cls-3"/><path d="M848.7 908.6c-7.6 13.1-16.2 22.4-19.2 20.6s44.2 16.1 44.2 16.1c-2-1.2.5-9.7 5.8-18.9s11.4-15.7 13.5-14.5-36-30.3-36-30.3c3 1.8-.7 13.9-8.3 27Z" class="cls-4"/><path d="M810.2 886.3c-9.9 17-21 29-25 26.8s44.3 16.1 44.3 16.1c-3-1.8.6-13.8 8.2-27 7.6-13.1 16.2-22.3 19.2-20.6s-36-30.3-36-30.3c3.9 2.3-.9 18-10.7 35Z" class="cls-3"/><path d="M785.2 913c-4-2.2.8-17.9 10.7-35 9.8-17 21-29 25-26.6S784.6 821 784.6 821c4.9 2.8-1 22-13.1 43s-25.9 35.7-30.7 32.9 44.3 16.1 44.3 16.1Z" class="cls-4"/><path d="M733 841.8c-14.3 25-30.6 42.4-36.4 39S741 897 741 897c-4.8-2.8 1-22.1 13.1-43 12.1-21 25.9-35.7 30.7-33s-36-30.2-36-30.2c5.7 3.3-1.3 26.2-15.6 51Z" class="cls-3"/><path d="M923.3 937.3c1.4.8-.3 6.3-3.7 12.2-3.5 6-7.4 10.1-8.8 9.3s67.4 24.5 67.4 24.5l-54.9-46ZM286.6 861.4c-11.8 67-33.5 119.8-49.6 122h96c-14.1-2.6-16.9-54-6.1-114.9 10.7-61 30.9-108.3 45-105.8L281.8 730c14.4 7.4 16.8 64.4 5 131.5ZM582.5 913.6c-6.7 38.4-19.2 68.7-28.4 69.7h61.8-.2c-7.9-1.4-9.4-30.2-3.4-64.5 6-34.2 17.4-60.8 25.3-59.4h.2l-58.1-21c8.3 4 9.6 36.7 2.8 75.2Z" class="cls-4"/><path d="M524.1 903.3c-7.8 44-22 78.8-32.6 80H553h-.2c-9.3-1.6-11.1-35.5-4-75.7 7-40.1 20.3-71.3 29.6-69.7h.2l-57.9-21c9.5 4.8 11 42.3 3.3 86.4ZM378 877.5c-10.3 58.2-29.1 104-43.1 105.8h76.8-.2c-12.4-2.1-14.8-47.3-5.3-100.8 9.4-53.5 27.1-95.1 39.5-93h.1l-72.1-26.2c12.5 6.5 14.5 56 4.3 114.2Z" class="cls-3"/><path d="M85.7 826c-15.2 86.5-43.2 154.6-64 157.3h115c-18.5-3.2-22-70.3-8-149.7 14-79.5 40.3-141.3 58.7-138l-108-39.4C97.9 666 101 739.5 85.7 826Z" class="cls-4"/><path d="M195.3 845.3c-13.3 76-38 135.6-56.1 138h95.7c-16.3-2.8-19.5-62-7.1-132.3 12.4-70.2 35.6-124.8 51.9-122v.1l-90-32.7c16.4 8.4 19 73 5.7 148.9Z" class="cls-3"/><path d="M451 890.4c-9 51.2-25.6 91.4-37.8 93h77-.1c-10.7-2-12.8-40.8-4.7-87 8.2-46 23.4-81.9 34-80h.2l-72.4-26.3c11 5.6 12.9 49.1 3.8 100.3Z" class="cls-4"/><path d="M21.7 983.3c20.8-2.7 48.8-70.8 64-157.3C101 739.5 98 666 79.4 656.2l-2.7-1c-21-3.7-51 66.8-67 157.4-16 90.6-11.8 167 9.1 170.7h3Z" class="cls-2"/><path d="M128.7 833.5c-14 79.5-10.5 146.6 8 149.8h2.5c18.2-2.4 42.7-62.1 56.1-138 13.4-76 10.7-140.4-5.6-149l-2.3-.8c-18.4-3.2-44.7 58.6-58.7 138Z" class="cls-1"/><path d="M227.8 851c-12.4 70.2-9.3 129.5 7 132.3h2.2c16.1-2 37.8-54.8 49.7-121.9 11.8-67 9.4-124.1-5-131.6l-2-.7c-16.3-2.9-39.5 51.7-52 122Z" class="cls-2"/><path d="M326.9 868.5c-10.7 61-8 112.3 6 114.8h2c14-1.7 32.8-47.6 43-105.8 10.4-58.2 8.3-107.8-4.2-114.2l-1.7-.6h-.1c-14.1-2.5-34.3 44.9-45 105.8Z" class="cls-1"/><path d="M406.2 882.5c-9.5 53.5-7 98.6 5.3 100.8h1.7c12.3-1.5 28.8-41.7 37.8-93 9-51 7.3-94.6-3.7-100.2l-1.5-.5h-.1c-12.4-2.2-30 39.4-39.5 92.9Z" class="cls-2"/><path d="M485.4 896.5c-8 46-6 85 4.7 86.8H491.5c10.5-1.2 24.8-36 32.6-80 7.8-44.1 6.2-81.6-3.3-86.4l-1.2-.4h-.1c-10.7-2-26 33.9-34 80Z" class="cls-1"/><path d="M548.9 907.6c-7.1 40.2-5.3 74 4 75.7h1.2c9.2-1 21.7-31.3 28.5-69.7 6.7-38.5 5.4-71.2-3-75.3l-.9-.4h-.2c-9.3-1.6-22.5 29.6-29.6 69.7Z" class="cls-2"/><path d="M612.3 918.8c-6 34.2-4.5 63.1 3.4 64.5h1c7.9-.8 18.5-26.6 24.3-59.4 5.8-32.8 4.6-60.7-2.5-64.2l-.7-.3h-.2c-8-1.4-19.3 25.2-25.3 59.4Z" class="cls-1"/><path d="M675.7 930c-5 28.3-3.7 52.2 2.9 53.3 6.5 1.2 15.9-20.8 20.9-49.1 5-28.3 3.7-52.2-2.9-53.3-6.5-1.2-15.9 20.8-20.9 49.1Z" class="cls-2"/><path d="M723.3 938.4c-4.2 23.8-3.1 44 2.4 45 5.5.9 13.4-17.7 17.6-41.5 4.2-23.8 3.1-44-2.4-45-5.5-.9-13.4 17.7-17.6 41.5Z" class="cls-1"/><ellipse cx="779" cy="948.2" class="cls-2" rx="35.6" ry="8.3" transform="rotate(-80 779 948.2)"/><path d="M818.4 955.2c-2.6 14.9-2 27.5 1.5 28.1 3.5.6 8.4-11 11-26 2.7-14.9 2-27.5-1.4-28-3.5-.7-8.4 11-11 25.9Z" class="cls-1"/><ellipse cx="870.4" cy="964.3" class="cls-2" rx="19.3" ry="4.5" transform="rotate(-80 870.4 964.3)"/><ellipse cx="908.7" cy="971.1" class="cls-1" rx="12.4" ry="2.9" transform="rotate(-80 908.7 971)"/><path d="M678.5 983.3c-6.5-1.1-7.8-25-2.8-53.3 5-28.3 14.4-50.3 21-49.1l-58.2-21.2c7.1 3.5 8.3 31.4 2.5 64.2-5.8 32.8-16.4 58.6-24.3 59.4h61.8Z" class="cls-3"/><path d="M874.8 965.1c-1.9 10.5-5.3 18.6-7.7 18.2s39.4 0 39.4 0c-1.6-.3-1.9-6-.7-12.7s3.5-12 5-11.8-37-13.5-37-13.5c2.4.5 2.8 9.3 1 19.8Z" class="cls-4"/><path d="M831 957.4c-2.7 15-7.6 26.5-11 26s47 0 47 0c-2.4-.5-2.8-9.3-1-19.8 1.9-10.5 5.3-18.7 7.7-18.2s-44.2-16.2-44.2-16.2c3.4.6 4 13.2 1.5 28.2Z" class="cls-3"/><path d="M787.1 949.6c-3.4 19.4-9.8 34.5-14.3 33.7s47.1 0 47.1 0c-3.4-.6-4.1-13.2-1.5-28.1 2.7-15 7.6-26.6 11-26s-44.2-16.1-44.2-16.1c4.5.8 5.3 17.2 2 36.5Z" class="cls-4"/><path d="M772.8 983.3c-4.5-.8-5.4-17.1-2-36.5 3.5-19.4 9.9-34.5 14.4-33.7S740.9 897 740.9 897c5.5 1 6.6 21 2.4 45-4.2 23.8-12.1 42.3-17.6 41.3s47.1 0 47.1 0Z" class="cls-3"/><path d="M699.4 934.2c-5 28.3-14.3 50.3-20.8 49.1s47 0 47 0c-5.4-1-6.5-21-2.3-45 4.2-23.7 12-42.3 17.6-41.3s-44.3-16.1-44.3-16.1c6.6 1.1 7.8 25 2.8 53.3Z" class="cls-4"/><path d="M910.8 958.8c1.6.3 1.9 6 .7 12.8-1.2 6.7-3.4 12-5 11.7s71.7 0 71.7 0l-67.4-24.5ZM286.6 1105.3c11.9 67 9.5 124-4.9 131.5L372 1204h-.1c-14.1 2.6-34.3-44.8-45-105.7-10.8-61-8-112.4 6-114.9h.2-96c16 2.1 37.7 54.9 49.5 122ZM582.5 1053c6.8 38.5 5.5 71.2-2.8 75.4l58-21.2h-.1c-8 1.5-19.3-25.1-25.3-59.4-6-34.2-4.5-63 3.4-64.5h.2-61.8c9.2 1 21.7 31.3 28.5 69.8Z" class="cls-3"/><path d="M524.1 1063.4c7.8 44.1 6.2 81.6-3.3 86.4l58-21h-.3c-9.3 1.6-22.5-29.6-29.6-69.8-7.1-40.1-5.3-74 4-75.6h.2-61.6c10.6 1.2 24.8 36 32.6 80ZM378 1089.2c10.3 58.2 8.2 107.7-4.3 114.1l72.1-26.2h-.1c-12.4 2.2-30-39.4-39.5-93-9.5-53.4-7-98.6 5.3-100.8h.2-76.8c14 1.8 32.8 47.6 43 105.9Z" class="cls-4"/><path d="M85.7 1140.7c15.3 86.5 12.3 160-6.3 169.8l108-39.4c-18.4 3.3-44.7-58.5-58.7-138s-10.5-146.5 8-149.8h-115c20.8 2.8 48.8 70.9 64 157.4Z" class="cls-3"/><path d="M195.3 1121.4c13.4 75.9 10.8 140.4-5.5 148.9l89.9-32.7c-16.3 2.8-39.5-51.7-52-122-12.3-70.2-9.2-129.4 7.1-132.3h-95.6c18.2 2.4 42.7 62.2 56.1 138Z" class="cls-4"/><path d="M451 1076.3c9 51.2 7.3 94.7-3.7 100.3l72.3-26.4h-.1c-10.7 2-26-33.9-34-80-8.2-46-6.1-85 4.6-86.9h.1-77c12.2 1.5 28.8 41.8 37.8 93Z" class="cls-3"/><path d="M79.4 1310.5c18.6-9.7 21.6-83.3 6.3-169.8-15.2-86.5-43.2-154.6-64-157.4h-2.9c-21 3.7-25 80.2-9 170.8 16 90.6 45.9 161 66.9 157.3l2.7-1Z" class="cls-1"/><path d="M128.7 1133.1c14 79.5 40.3 141.3 58.7 138l2.3-.8c16.4-8.5 19-73 5.6-149-13.4-75.8-38-135.6-56.1-138h-2.5c-18.5 3.3-22 70.3-8 149.8Z" class="cls-2"/><path d="M227.8 1115.6c12.4 70.2 35.6 124.8 51.8 122h.1l2-.8c14.4-7.4 16.8-64.5 5-131.5-11.9-67.1-33.6-119.9-49.7-122H235c-16.4 3-19.5 62.1-7.1 132.4Z" class="cls-1"/><path d="M326.9 1098.2c10.7 60.9 30.9 108.3 45 105.8l1.8-.7c12.5-6.4 14.6-55.9 4.3-114.1-10.3-58.3-29.1-104.1-43.1-105.9H333c-14.1 2.5-16.9 54-6.1 114.9Z" class="cls-2"/><path d="M406.2 1084.2c9.4 53.5 27.1 95.1 39.5 93l.1-.1 1.4-.5c11-5.6 12.9-49.1 3.8-100.3-9-51.2-25.6-91.4-37.8-93h-1.6c-12.5 2.2-14.9 47.4-5.4 100.9Z" class="cls-1"/><path d="M485.4 1070.2c8.2 46.1 23.4 82 34 80h.2l1.2-.4c9.5-4.8 11-42.3 3.3-86.4-7.8-44.1-22-78.8-32.6-80H490c-10.7 1.8-12.8 40.7-4.7 86.8Z" class="cls-2"/><path d="M548.9 1059c7 40.2 20.3 71.4 29.6 69.8h.2l1-.4c8.3-4.2 9.6-36.9 2.9-75.3-6.8-38.5-19.3-68.7-28.5-69.8H553c-9.3 1.7-11.1 35.6-4 75.7Z" class="cls-1"/><path d="M612.3 1047.8c6 34.3 17.4 60.9 25.3 59.5h.2l.7-.4c7.1-3.5 8.3-31.3 2.5-64.1-5.8-32.8-16.4-58.6-24.3-59.5h-1c-8 1.4-9.5 30.3-3.4 64.5Z" class="cls-2"/><path d="M675.7 1036.7c5 28.3 14.4 50.2 21 49 6.5-1 7.7-25 2.7-53.2-5-28.3-14.3-50.3-20.8-49.1-6.6 1.1-7.9 25-2.9 53.3Z" class="cls-1"/><path d="M723.3 1028.3c4.2 23.8 12 42.3 17.6 41.4 5.5-1 6.6-21.1 2.4-45-4.2-23.8-12.1-42.3-17.6-41.4-5.6 1-6.6 21.1-2.4 45Z" class="cls-2"/><ellipse cx="779" cy="1018.5" class="cls-1" rx="8.3" ry="35.6" transform="rotate(-10 779 1018.5)"/><path d="M818.4 1011.5c2.7 15 7.6 26.6 11 26 3.5-.7 4.2-13.3 1.5-28.2-2.6-15-7.5-26.6-11-26-3.4.7-4.1 13.3-1.5 28.2Z" class="cls-2"/><ellipse cx="870.4" cy="1002.3" class="cls-1" rx="4.5" ry="19.3" transform="rotate(-10 870.4 1002.3)"/><ellipse cx="908.7" cy="995.6" class="cls-2" rx="2.9" ry="12.4" transform="rotate(-10 908.6 995.6)"/><path d="M696.6 1085.8c-6.5 1.1-15.9-20.9-20.9-49.1-5-28.3-3.7-52.2 2.9-53.4h-61.9c7.9.9 18.5 26.7 24.3 59.5 5.8 32.8 4.6 60.7-2.5 64.2l58.1-21.2Z" class="cls-4"/><path d="M874.8 1001.6c1.8 10.4 1.4 19.3-1 19.7s37-13.5 37-13.5c-1.5.3-3.8-5-5-11.7-1.1-6.8-.8-12.5.7-12.8s-39.5 0-39.5 0c2.5-.4 6 7.8 7.8 18.3Z" class="cls-3"/><path d="M831 1009.3c2.6 15 2 27.5-1.5 28.1s44.2-16 44.2-16c-2.4.4-5.9-7.8-7.7-18.3-1.9-10.5-1.4-19.3 1-19.8s-47 0-47 0c3.4-.6 8.3 11 11 26Z" class="cls-4"/><path d="M787.1 1017c3.4 19.4 2.6 35.8-2 36.6s44.4-16.1 44.4-16.1c-3.5.6-8.4-11-11-26-2.7-15-2-27.5 1.4-28.1s-47.1 0-47.1 0c4.5-.8 10.9 14.2 14.3 33.6Z" class="cls-3"/><path d="M785.2 1053.5c-4.5.8-11-14.2-14.3-33.6-3.5-19.4-2.6-35.8 1.9-36.6s-47.1 0-47.1 0c5.5-1 13.4 17.6 17.6 41.4 4.2 23.9 3.1 44-2.4 45s44.3-16.1 44.3-16.1Z" class="cls-4"/><path d="M699.4 1032.5c5 28.3 3.8 52.1-2.8 53.3s44.3-16.1 44.3-16.1c-5.5 1-13.4-17.6-17.6-41.4-4.2-23.9-3.1-44 2.4-45s-47.2 0-47.2 0c6.6-1.1 16 20.9 21 49.2Z" class="cls-3"/><path d="M906.5 983.3c1.6-.2 3.8 5 5 11.8 1.2 6.7.9 12.4-.7 12.7s67.4-24.5 67.4-24.5h-71.7ZM370 1334.4c34.1 59 51.4 113.4 40.4 125.3L484 1398c-12.5 7.2-47.6-30.4-78.6-84-30.9-53.6-46-102.8-33.5-110l-90.2 32.8c15.8-3.5 54.3 38.6 88.3 97.6ZM630.3 1184.2c19.5 33.8 29.4 65 23 71.7l47.4-39.7h-.2c-7 4.1-26.7-17-44-47.1-17.5-30.1-25.9-57.8-19-61.8h.3l-58.1 21c9-2 31 22 50.6 55.9Z" class="cls-4"/><path d="M578.9 1213.9c22.4 38.7 33.7 74.5 26.4 82.3l47.2-39.6h-.1c-8.2 4.8-31.4-20-51.7-55.3-20.4-35.3-30.3-67.8-22.2-72.5h.2l-57.9 21c10.4-2.5 35.7 25.3 58 64ZM450.4 1288c29.5 51.3 44.6 98.5 35 108.8l58.8-49.3h-.1c-11 6.3-41.8-26.7-69-73.8-27.1-47-40.3-90.3-29.4-96.6h.1l-72.1 26.2c13.7-3 47.1 33.5 76.7 84.8Z" class="cls-3"/><path d="M193.4 1436.4c43.9 76.1 66.2 146.2 52 161.7l88.1-73.9c-16.2 9.4-62-39.7-102.4-109.6-40.3-69.9-59.9-134-43.7-143.4l-108 39.3c20.5-4.5 70 49.9 114 126Z" class="cls-4"/><path d="M289.8 1380.8c38.5 66.7 58 128.3 45.6 141.8l73.4-61.5c-14.4 8.3-54.9-35-90.5-96.8-35.7-61.7-53-118.5-38.7-126.7h.1l-90 32.7c18-4 61.5 43.7 100 110.5Z" class="cls-3"/><path d="M514.6 1251c26 45 39.2 86.5 30.8 95.5l59-49.5h-.1c-9.4 5.5-36-23-59.4-63.5s-34.8-77.8-25.4-83.2h.1l-72.4 26.3c12-2.8 41.4 29.4 67.4 74.4Z" class="cls-4"/><path d="M245.5 1598.1c14.1-15.5-8.2-85.6-52.1-161.7-44-76-93.5-130.5-114-126l-2.7 1c-18.5 10.7 3.9 84 49.9 163.6 46 79.7 98.2 135.6 116.7 125l2.2-2Z" class="cls-2"/><path d="M231.1 1414.6c40.4 70 86.2 119 102.4 109.6l2-1.6c12.4-13.5-7.2-75-45.8-141.8-38.5-66.8-82-114.5-100-110.5l-2.3.8c-16.2 9.4 3.4 73.6 43.7 143.5Z" class="cls-1"/><path d="M318.3 1364.3c35.6 61.7 76.1 105.1 90.4 96.8l1.7-1.4c11-11.9-6.3-66.3-40.3-125.3-34.1-59-72.6-101.1-88.4-97.6l-2 .7c-14.4 8.3 3 65 38.6 126.8Z" class="cls-2"/><path d="M405.4 1314c31 53.6 66.1 91.2 78.5 84h.1l1.4-1.2c9.6-10.3-5.4-57.5-35-108.8-29.6-51.2-63-87.8-76.7-84.7l-1.7.7c-12.5 7.2 2.5 56.4 33.5 110Z" class="cls-1"/><path d="M475.2 1273.7c27.1 47.1 58 80.1 68.9 73.9v-.1l1.3-1c8.4-9-4.8-50.5-30.8-95.5s-55.3-77.2-67.4-74.4l-1.4.5h-.1c-11 6.3 2.3 49.6 29.5 96.6Z" class="cls-2"/><path d="M544.9 1233.5c23.4 40.5 50 69 59.4 63.6v-.1l1-.8c7.3-7.8-4-43.5-26.4-82.3s-47.7-66.5-58-64.1l-1.2.4h-.2c-9.4 5.5 2 42.8 25.4 83.3Z" class="cls-1"/><path d="M600.6 1201.3c20.4 35.3 43.6 60.1 51.8 55.4l.1-.1.8-.7c6.4-6.7-3.5-37.9-23-71.7-19.6-33.8-41.6-58-50.6-55.8l-1 .3-.2.1c-8.1 4.7 1.8 37.2 22.1 72.5Z" class="cls-2"/><path d="M656.4 1169c17.4 30.2 37.1 51.3 44.1 47.3l.2-.1.6-.5c5.5-5.7-3-32.3-19.6-61.2-16.7-28.8-35.5-49.4-43.2-47.6l-.7.3-.2.1c-7 4 1.5 31.7 18.8 61.8Z" class="cls-1"/><path d="M712.2 1136.9c14.4 24.9 30.7 42.3 36.4 39 5.8-3.3-1.2-26.2-15.6-51-14.3-25-30.6-42.4-36.4-39-5.8 3.3 1.2 26.1 15.6 51Z" class="cls-2"/><path d="M754 1112.7c12.1 21 25.9 35.7 30.7 33 4.9-2.9-1-22.2-13.1-43.1-12.1-21-25.9-35.7-30.7-32.9-4.8 2.8 1 22 13.1 43Z" class="cls-1"/><ellipse cx="803" cy="1084.5" class="cls-2" rx="8.3" ry="35.6" transform="rotate(-30 803 1084.4)"/><path d="M837.7 1064.4c7.6 13.2 16.2 22.4 19.2 20.6 3-1.7-.6-13.8-8.2-27-7.6-13-16.2-22.3-19.2-20.5s.6 13.8 8.2 27Z" class="cls-1"/><ellipse cx="883.4" cy="1038" class="cls-2" rx="4.5" ry="19.3" transform="rotate(-30 883.4 1038)"/><ellipse cx="917" cy="1018.6" class="cls-1" rx="2.9" ry="12.4" transform="rotate(-30 917 1018.6)"/><path d="M748.6 1176c-5.7 3.2-22-14.2-36.4-39.1-14.3-24.9-21.3-47.7-15.6-51l-58 21c7.6-1.8 26.4 18.8 43 47.6 16.7 28.9 25.2 55.5 19.7 61.2l47.4-39.8Z" class="cls-3"/><path d="M887.3 1035.8c5.3 9.2 7.9 17.7 5.7 19s30.3-25.4 30.3-25.4c-1.4.8-5.3-3.4-8.7-9.4-3.5-5.9-5.1-11.4-3.8-12.2s-37 13.5-37 13.5c2.1-1.2 8.1 5.3 13.5 14.5Z" class="cls-4"/><path d="M848.7 1058c7.6 13.2 11.3 25.3 8.2 27s36.1-30.2 36.1-30.2c-2.1 1.2-8.1-5.3-13.5-14.5-5.3-9.2-7.9-17.7-5.7-19s-44.3 16.2-44.3 16.2c3-1.8 11.6 7.5 19.2 20.6Z" class="cls-3"/><path d="M810.2 1080.3c9.8 17 14.6 32.7 10.6 35S857 1085 857 1085c-3 1.8-11.6-7.5-19.2-20.6-7.6-13.1-11.3-25.2-8.2-27s-44.3 16.2-44.3 16.2c4-2.3 15.1 9.7 25 26.7Z" class="cls-4"/><path d="M820.8 1115.3c-4 2.3-15.1-9.7-25-26.7-9.8-17-14.6-32.7-10.6-35s-44.3 16-44.3 16c4.9-2.7 18.6 12 30.7 33 12.1 21 18 40.2 13.1 43s36.1-30.3 36.1-30.3Z" class="cls-3"/><path d="M733 1124.8c14.4 25 21.4 47.8 15.6 51.1s36.1-30.3 36.1-30.3c-4.8 2.8-18.6-12-30.7-32.9-12-21-18-40.2-13-43s-44.4 16-44.4 16c5.8-3.2 22.1 14.2 36.5 39.1Z" class="cls-4"/><path d="M910.8 1007.8c1.4-.7 5.3 3.4 8.7 9.4 3.5 6 5.1 11.4 3.8 12.2s54.8-46 54.8-46l-67.3 24.4ZM526.8 1521.2c52.2 43.8 87 89 80.8 104l48-83.2c-9.3 11-55.1-12.3-102.5-52-47.4-39.8-78.4-81-69.2-92h.1l-73.6 61.7c13.7-8.7 64.2 17.7 116.4 61.5ZM720 1291c29.9 25.2 49.8 51 46.1 59.6l31-53.6-.2.2c-5.1 6.2-31-7-57.5-29.3-26.7-22.3-44-45.4-38.9-51.6l.2-.1-47.4 39.7c7.7-5.1 36.7 10 66.6 35.2Z" class="cls-3"/><path d="M681.8 1336.5c34.3 28.8 57.2 58.5 53 68.3l30.8-53.3v.1c-6.2 7.3-36.4-8.1-67.6-34.3-31.3-26.2-51.7-53.4-45.6-60.6l.1-.1-47.2 39.6c9-5.8 42.2 11.6 76.5 40.3ZM586.4 1450.2c45.3 38 75.6 77.3 70.1 90.2L695 1474v.1c-8.2 9.7-48.5-10.8-90-45.7-41.7-35-68.9-71-60.8-80.7v-.1l-58.7 49.3c11.8-7.6 55.7 15.4 101 53.4Z" class="cls-4"/><path d="M395.7 1677.5c67.3 56.5 112.2 114.8 104.2 134.1l57.5-99.5c-12 14.3-71.9-16.1-133.7-68-61.8-51.9-102.2-105.5-90.2-119.8l-88 73.8c17.7-11.2 82.9 23 150.2 79.4Z" class="cls-3"/><path d="M467.2 1592.3c59 49.5 98.5 100.7 91.5 117.6l47.8-82.9v.1c-10.6 12.6-63.5-14.3-118.1-60-54.6-45.9-90.3-93.3-79.7-106l-73.3 61.5c15.5-9.8 72.8 20.1 131.8 69.7Z" class="cls-4"/><path d="M634.1 1393.4c39.8 33.4 66.4 67.8 61.6 79.2l38.5-66.7-.1.1c-7 8.3-41.7-9.3-77.5-39.4-35.9-30.1-59.3-61.2-52.3-69.5v-.1l-59 49.5c10.4-6.7 49 13.5 88.8 46.9Z" class="cls-3"/><path d="M500 1811.6c8-19.3-37-77.6-104.3-134-67.3-56.5-132.5-90.7-150.2-79.5l-2.2 1.9c-13.7 16.3 32.3 77.5 102.8 136.6 70.5 59.2 138.7 93.9 152.4 77.5l1.4-2.5Z" class="cls-1"/><path d="M423.7 1644.1c61.8 51.9 121.7 82.3 133.7 68l1.3-2.2c7-17-32.5-68-91.5-117.6-59-49.6-116.3-79.6-131.8-69.7l-1.9 1.6c-12 14.4 28.4 68 90.2 119.9Z" class="cls-2"/><path d="M488.4 1567c54.6 45.8 107.5 72.7 118 60.1h.1l1-2c6.3-14.9-28.5-60-80.7-103.9-52.2-43.7-102.7-70.2-116.4-61.5l-1.6 1.4c-10.7 12.7 25 60.1 79.6 106Z" class="cls-1"/><path d="M553 1490c47.5 39.7 93.4 63 102.6 52l1-1.6c5.4-13-24.9-52.2-70.2-90.2-45.3-38-89.2-61-101-53.4l-1.4 1.2c-9.3 11 21.7 52.2 69 92Z" class="cls-2"/><path d="M604.8 1428.3c41.7 34.9 82 55.4 90 45.8l.1-.2.8-1.3c4.8-11.4-21.8-45.8-61.6-79.2-39.8-33.4-78.4-53.6-88.7-46.9l-1.2 1h-.1c-8.1 9.7 19 45.8 60.7 80.8Z" class="cls-1"/><path d="M656.6 1366.6c35.8 30 70.5 47.7 77.5 39.4v-.1l.7-1c4.2-9.9-18.7-39.6-53-68.4-34.3-28.8-67.6-46.2-76.5-40.3l-1 .8c-7 8.4 16.4 39.5 52.3 69.6Z" class="cls-2"/><path d="M698 1317.3c31.2 26.2 61.4 41.6 67.5 34.3l.1-.1.5-1c3.7-8.4-16.2-34.4-46.2-59.5-29.9-25-58.9-40.2-66.6-35.1l-.8.7h-.1c-6 7.3 14.3 34.4 45.6 60.6Z" class="cls-1"/><path d="M739.4 1268c26.6 22.3 52.4 35.4 57.5 29.2l.1-.2.4-.7c3.2-7.2-13.8-29.3-39.3-50.7-25.5-21.4-50.2-34.3-56.8-30l-.6.6-.2.1c-5.1 6.2 12.3 29.3 38.9 51.6Z" class="cls-2"/><path d="M780.8 1218.6c22 18.4 43.3 29.3 47.5 24.2 4.3-5.1-10-24.2-32-42.7-22-18.4-43.4-29.3-47.6-24.2-4.3 5.1 10 24.2 32 42.7Z" class="cls-1"/><path d="M811.8 1181.6c18.5 15.5 36.5 24.7 40.1 20.4 3.6-4.3-8.5-20.4-27-36-18.6-15.5-36.5-24.7-40.1-20.4s8.5 20.4 27 36Z" class="cls-2"/><ellipse cx="848.2" cy="1138.3" class="cls-1" rx="8.3" ry="35.6" transform="rotate(-50 848.2 1138.3)"/><path d="M873.9 1107.6c11.6 9.7 22.9 15.5 25.1 12.8 2.3-2.7-5.3-12.8-17-22.6-11.6-9.7-22.8-15.4-25-12.7-2.3 2.7 5.3 12.7 16.9 22.5Z" class="cls-2"/><ellipse cx="907.8" cy="1067.2" class="cls-1" rx="4.5" ry="19.3" transform="rotate(-50 907.8 1067.2)"/><ellipse cx="932.8" cy="1037.4" class="cls-2" rx="2.9" ry="12.4" transform="rotate(-50 932.8 1037.4)"/><path d="M828.4 1242.8c-4.3 5-25.6-5.8-47.6-24.2-22-18.5-36.4-37.6-32.1-42.7l-47.4 39.8c6.6-4.4 31.3 8.5 56.8 29.9 25.5 21.4 42.5 43.5 39.3 50.7l31-53.5Z" class="cls-4"/><path d="M910.7 1063.7c8.1 6.9 13.5 14 11.9 15.8s19.7-34.1 19.7-34.1c-1 1.2-6-1.4-11.3-5.8-5.3-4.4-8.7-9-7.7-10.2s-30.3 25.4-30.3 25.4c1.6-2 9.5 2.1 17.7 9Z" class="cls-3"/><path d="M882 1097.8c11.7 9.8 19.3 19.9 17 22.6s23.6-40.8 23.6-40.8c-1.6 1.8-9.5-2.2-17.6-9-8.2-6.9-13.5-14-12-15.8s-36 30.3-36 30.3c2.2-2.7 13.5 3 25 12.7Z" class="cls-4"/><path d="M853.5 1132c15 12.6 24.9 25.7 22 29.2s23.5-40.8 23.5-40.8c-2.2 2.6-13.5-3-25.1-12.8s-19.2-19.9-17-22.5-36 30.2-36 30.2c2.9-3.4 17.5 4 32.6 16.6Z" class="cls-3"/><path d="M875.5 1161.2c-3 3.5-17.6-4-32.6-16.6s-25-25.8-22-29.2-36.2 30.2-36.2 30.2c3.6-4.2 21.6 4.9 40.1 20.4 18.6 15.6 30.7 31.7 27.1 36s23.6-40.8 23.6-40.8Z" class="cls-4"/><path d="M796.2 1200.1c22 18.5 36.4 37.6 32.1 42.7S852 1202 852 1202c-3.6 4.3-21.6-4.9-40.1-20.4-18.5-15.6-30.6-31.7-27-36s-36.2 30.3-36.2 30.3c4.3-5 25.6 5.8 47.6 24.2Z" class="cls-3"/><path d="M923.3 1029.4c1-1.2 6 1.4 11.4 5.8 5.2 4.4 8.6 9 7.6 10.2s35.8-62 35.8-62l-54.8 46ZM738 1643.2c64 23.3 112.2 53.8 111.5 70l16.6-94.6v.1c-4.9 13.5-56 7.2-114.1-14-58.2-21-101.3-49.2-96.4-62.6v-.1l-48 83.2c9.8-13 66.4-5.3 130.4 18ZM840.8 1360.8c36.7 13.4 64.3 30.9 63.7 40.1l10.8-60.8v.2c-2.8 7.5-31.5 4-64.2-7.9s-56.9-27.6-54.1-35.2v-.2l-30.9 53.6c5.6-7.5 38-3.1 74.7 10.2Z" class="cls-4"/><path d="M820.5 1416.6c42 15.3 73.7 35.4 73.1 46l10.7-60.6v.1c-3.2 8.9-37 4.8-75.2-9.2-38.3-14-66.8-32.4-63.6-41.3l.1-.1-30.8 53.3c6.4-8.5 43.6-3.5 85.7 11.8ZM769.7 1556c55.6 20.2 97.4 46.8 96.8 60.8l13.3-75.6v.2c-4.3 11.8-49.2 6.3-100.3-12.3-51-18.6-89-43.2-84.6-55v-.2l-38.4 66.5c8.5-11.2 57.7-4.6 113.2 15.6Z" class="cls-3"/><path d="M668.2 1834.9c82.6 30 144.7 69.4 143.9 90.3l20-113.2c-6.5 17.6-73.1 9.5-149-18.1-75.8-27.6-132-64.2-125.7-81.8l-57.4 99.5c12.7-16.6 85.7-6.8 168.2 23.3Z" class="cls-4"/><path d="M706.3 1730.3c72.4 26.4 127 61 126.2 79.3l16.6-94.3c-5.7 15.6-64.6 8.4-131.5-16s-116.8-56.7-111.1-72.2l-47.9 82.8c11.2-14.6 75.2-6 147.7 20.4Z" class="cls-3"/><path d="M795 1486.3c49 17.8 85.7 41 85 53.4l13.4-75.8v.1c-3.7 10.2-42.4 5.5-86.4-10.5-44-16-76.6-37.3-72.9-47.5v-.1l-38.4 66.7c7.4-9.8 50.6-4 99.4 13.7Z" class="cls-4"/><path d="M812 1925.2c1-20.9-61.2-60.3-143.8-90.3-82.5-30-155.5-39.9-168.3-23.3l-1.4 2.5c-7.3 20 56.9 61.8 143.3 93.3 86.5 31.4 162.5 40.7 169.8 20.7l.5-2.9Z" class="cls-2"/><path d="M683.1 1793.9c75.9 27.6 142.5 35.7 149 18.2l.4-2.5c.8-18.4-53.8-53-126.2-79.3-72.4-26.4-136.5-35-147.6-20.4l-1.3 2.2c-6.4 17.6 49.9 54.2 125.7 81.8Z" class="cls-1"/><path d="M717.6 1699.3c67 24.4 125.8 31.6 131.5 16l.4-2c.7-16.3-47.5-46.8-111.5-70.1-64-23.3-120.6-31-130.4-18l-1 1.8h-.1c-5.7 15.6 44 48 111 72.3Z" class="cls-2"/><path d="M752 1604.8c58.1 21.1 109.2 27.4 114.1 14v-.2l.3-1.8c.7-14-41.1-40.5-96.7-60.8-55.6-20.2-104.7-26.8-113.2-15.6l-.9 1.6c-5 13.5 38.2 41.6 96.4 62.8Z" class="cls-1"/><path d="M779.5 1529.1c51 18.6 96 24 100.3 12.3v-.2l.3-1.5c.6-12.3-36.2-35.6-85-53.4-48.8-17.8-92-23.6-99.4-13.7l-.8 1.3v.2c-4.3 11.8 33.6 36.4 84.6 55Z" class="cls-2"/><path d="M807 1453.5c44 16 82.7 20.7 86.4 10.5v-.1l.2-1.3c.6-10.6-31-30.7-73.1-46-42.1-15.3-79.3-20.3-85.7-11.8l-.6 1.1v.2c-3.8 10.1 28.9 31.4 72.8 47.4Z" class="cls-1"/><path d="M829 1393c38.4 13.9 72 18 75.3 9.1v-.1l.2-1c.6-9.3-27-26.8-63.7-40.2-36.7-13.3-69.1-17.7-74.7-10.2l-.5.9v.1c-3.3 9 25.1 27.4 63.5 41.4Z" class="cls-2"/><path d="M851.1 1332.4c32.7 12 61.4 15.4 64.1 7.9v-.2l.2-.8c.5-7.9-23-22.8-54.3-34.2-31.3-11.4-59-15.1-63.7-8.7l-.4.6v.2c-2.8 7.6 21.4 23.4 54.1 35.2Z" class="cls-1"/><path d="M873.1 1272c27 9.7 50.7 12.6 53 6.4s-17.8-19.3-44.8-29.1c-27-9.8-50.7-12.7-53-6.5-2.2 6.3 17.8 19.3 44.8 29.1Z" class="cls-2"/><path d="M889.6 1226.5c22.8 8.3 42.8 10.7 44.7 5.5 2-5.3-15-16.3-37.7-24.6-22.8-8.2-42.8-10.7-44.7-5.4-1.9 5.3 15 16.2 37.7 24.5Z" class="cls-1"/><ellipse cx="909" cy="1173.4" class="cls-2" rx="8.3" ry="35.6" transform="rotate(-70 909 1173.4)"/><path d="M922.7 1135.7c14.2 5.2 26.8 6.8 28 3.5 1.2-3.3-9.4-10.2-23.7-15.4-14.2-5.2-26.8-6.7-28-3.4-1.2 3.3 9.4 10.2 23.7 15.3Z" class="cls-1"/><ellipse cx="940.7" cy="1086.2" class="cls-2" rx="4.5" ry="19.3" transform="rotate(-70 940.7 1086.2)"/><ellipse cx="954" cy="1049.6" class="cls-1" rx="2.9" ry="12.4" transform="rotate(-70 954 1049.6)"/><path d="M926.1 1278.4c-2.3 6.2-26 3.3-53-6.5s-47-22.9-44.7-29.1l-31 53.5c4.7-6.3 32.4-2.6 63.7 8.8 31.3 11.3 54.8 26.3 54.3 34.2l10.7-61Z" class="cls-3"/><path d="M942.3 1082c10 3.6 17.4 8.4 16.6 10.8s6.8-39 6.8-39c-.5 1.6-6.2.9-12.7-1.5s-11.2-5.4-10.6-7-19.8 34.3-19.8 34.3c.9-2.3 9.7-1.3 19.7 2.4Z" class="cls-4"/><path d="M927 1123.8c14.3 5.2 24.9 12 23.7 15.4s8.2-46.4 8.2-46.4c-.9 2.3-9.7 1.2-19.7-2.5-10-3.6-17.4-8.4-16.6-10.7s-23.6 40.8-23.6 40.8c1.2-3.3 13.8-1.8 28 3.4Z" class="cls-3"/><path d="M911.8 1165.6c18.5 6.7 32.2 15.7 30.7 20s8.2-46.4 8.2-46.4c-1.2 3.3-13.8 1.7-28-3.5-14.3-5.1-24.9-12-23.7-15.3s-23.5 40.8-23.5 40.8c1.5-4.3 17.8-2.3 36.3 4.4Z" class="cls-4"/><path d="M942.5 1185.6c-1.6 4.3-17.8 2.3-36.3-4.5-18.5-6.7-32.3-15.6-30.7-20s-23.6 40.9-23.6 40.9c2-5.3 22-2.8 44.7 5.4 22.7 8.3 39.6 19.3 37.7 24.6s8.2-46.4 8.2-46.4Z" class="cls-3"/><path d="M881.4 1249.3c27 9.8 47 22.8 44.7 29s8.2-46.3 8.2-46.3c-2 5.2-22 2.8-44.6-5.5-22.8-8.3-39.7-19.2-37.8-24.5s-23.5 40.8-23.5 40.8c2.3-6.2 26-3.4 53 6.5Z" class="cls-4"/><path d="M942.3 1045.4c.6-1.5 6.3-.8 12.7 1.5 6.5 2.4 11.2 5.5 10.7 7s12.4-70.6 12.4-70.6l-35.8 62Z" class="cls-3"/></svg>
