<svg version="1.1" xmlns="http://www.w3.org/2000/svg" viewBox="0 0 32 32" class="cmp-icon cmp-icon--codepen">
<path fill="currentcolor" d="M27 12.5v-.2l-.1-.1V12h-.1l-.1-.1h-.1v-.1l-10-6.7a1 1 0 0 0-1.1 0L5.3 12l-.1.1-.1.1v.2l-.1.1v7.2l.1.1v.1h.1v.1h.1v.1L15.5 27l.6.1c.1 0 .3 0 .5-.2L26.7 20l.1-.1v-.1l.1-.1v-7.2h.1Zm-11 5.8L12.7 16l3.3-2.2 3.4 2.2-3.4 2.3ZM15 12l-4 3-3.3-2.2 7.4-5v4.4Zm-5.7 4-2.4 1.5v-3.2L9.3 16Zm1.7 1 4 2.8v4.5l-7.3-5 3.3-2.2Zm6 2.8 4-2.7 3.4 2.2-7.4 5v-4.5Zm5.8-3.9 2.3-1.5v3.1L22.8 16ZM21 15l-4-2.8V7.7l7.4 5-3.3 2.2Z" />
</svg>
