<svg version="1.1" xmlns="http://www.w3.org/2000/svg" viewBox="0 0 22 32" class="icon icon--coffee">
	<path d="M4.2 28.7c0 .5.5.8 1 .8h12.3a1 1 0 0 0 .9-.8l2.8-23.4c0-.4-.3-.8-.7-.8H2c-.4 0-.7.4-.7.8l2.8 23.4Z" class="cup"/>
	<path fill="currentcolor" d="m22 4.4-.6-3.2c0-.4-.3-.7-.6-.7h-19c-.3 0-.5.3-.6.7L.5 4.4c0 .6.2 1.1.7 1.1h20.2c.5 0 .8-.5.7-1Z" class="lid"/>
	<path d="M20.8 10.4c-.2-.3-.5-.4-.9-.4H2.7c-.4 0-.7.1-1 .4l-.2 1 1 8.6c.1.6.6 1 1.2 1H19c.6 0 1.1-.4 1.2-1l1-8.7c0-.3 0-.7-.3-.9Z" class="sleeve"/>
</svg>
