<svg version="1.1" xmlns="http://www.w3.org/2000/svg" viewBox="0 0 32 32" class="cmp-icon cmp-icon--dribbble">
<path fill="currentcolor" d="M16 27a11 11 0 1 1 0-22 11 11 0 0 1 0 22Zm9.3-9.5c-.3-.1-3-.9-5.9-.4 1.3 3.4 1.8 6.1 1.9 6.7a9.4 9.4 0 0 0 4-6.3Zm-5.6 7.2a39 39 0 0 0-2-7.2h-.1a12.8 12.8 0 0 0-7.4 6 9.3 9.3 0 0 0 9.5 1.2ZM9 22.3a14.9 14.9 0 0 1 8-6.3l-.7-1.6a34.6 34.6 0 0 1-9.7 1.3v.3c0 2.4 1 4.6 2.4 6.3Zm-2.2-8.2c.4 0 4.3 0 8.7-1.2A60 60 0 0 0 12 7.5a9.4 9.4 0 0 0-5.2 6.6Zm7-7.2c.3.3 2 2.7 3.5 5.5 3.3-1.3 4.8-3.2 5-3.4a9.3 9.3 0 0 0-8.5-2.1Zm9.5 3.2c-.2.2-1.8 2.3-5.3 3.7l.7 1.3c0 .2 0 .4.2.5a22 22 0 0 1 6.5.3c0-2.2-.8-4.2-2.1-5.8Z" />
</svg>
