<svg version="1.1" xmlns="http://www.w3.org/2000/svg" viewBox="0 0 32 32" class="cmp-icon cmp-icon--github">
<path fill="currentcolor" d="M16 5C10 5 5 9.8 5 15.8c0 4.7 3.2 8.8 7.5 10.2.6 0 .8-.3.8-.5v-1.9c-3.1.7-3.7-1.4-3.7-1.4-.5-1.3-1.3-1.6-1.3-1.6-1-.7.1-.6.1-.6 1.1 0 1.7 1 1.7 1 1 1.7 2.6 1.2 3.2 1 .1-.7.4-1.2.7-1.5-2.5-.2-5-1.2-5-5.3 0-1.2.4-2.1 1.1-2.9-.1-.3-.5-1.4.1-2.8 0 0 1-.3 3 1a10.8 10.8 0 0 1 5.5 0c2.1-1.3 3-1 3-1a4 4 0 0 1 .2 2.8c.7.8 1 1.7 1 2.9 0 4.1-2.5 5-5 5.3.5.3.8 1 .8 2v3c0 .2.2.6.8.5 4.4-1.4 7.5-5.5 7.5-10.2C27 9.8 22 5 16 5Z" />
</svg>
