<svg xmlns="http://www.w3.org/2000/svg" fill="none" viewBox="0 0 32 32">
  <path fill="currentcolor" d="M26 12.2c0-4.7-3-6.1-3-6.1A19 19 0 0 0 16 5c-2.8 0-5.4.3-7 1 0 0-3 1.5-3 6.2V16c.1 4.7.9 9.3 5 10.4 2 .5 3.7.7 5 .6a10 10 0 0 0 3.8-1v-1.7s-1.8.5-3.8.5c-1.9-.1-4-.2-4.3-2.7v-.6a24.3 24.3 0 0 0 8.6.3c2.6-.4 5-2 5.3-3.6.4-2.5.4-6 .4-6Zm-3.6 6.2h-2.2v-5.6c0-1.2-.5-1.8-1.5-1.8s-1.6.7-1.6 2.1v3H15v-3c0-1.4-.5-2.1-1.6-2.1-1 0-1.5.6-1.5 1.8v5.6H9.6v-5.8c0-1.2.3-2.1.9-2.8a3 3 0 0 1 2.4-1c1.1 0 2 .4 2.5 1.3l.6 1 .6-1C17 9 18 8.7 19 8.7s1.8.4 2.4 1c.6.8.9 1.7.9 2.9v5.8Z"/>
</svg>