<svg version="1.1" xmlns="http://www.w3.org/2000/svg" viewBox="0 0 32 32" class="cmp-icon cmp-icon--ohio">
  <path fill="currentcolor" d="M29 0c.2 0 .3.1.3.3l.3 11.3c0 .8-.8.2-.5 1.7.1.8 0 1.8-.3 2.6-.3.6-.4 1.3-.5 2 0 .6-.5 1.2-.5 1.8 0 .4 0 .9-.3 1.2l-1.7 1.6c-1.6 1.8-2 .3-3 1.4-.8 1-1 .4-1.4 1.9V27c-.1.3-.5.6-.8.5-.3-.1-.4-.5-.6-.7-.5-.3-.9.3-1 .7l-.4.7c-.1.3-.2.6-.1.9v.7c0 .4-.5.7-.7 1l-.5.7c-.3.3-1 .5-1.3.4l-1-.8c-.2-.3-.7-.4-1-.8-.3-.5-.4-1.5-1.3-1l-1.1.8c-1.3.5-1.6-.8-3.4-.2-.8.1-1.3-.7-2-1-.8-.2-1.7.1-2.2-.8-.2-.4-.3-.8-.6-1-.3-.4-.6-1-1.1-1H1.2l-1-.3H0L.5 2.5c0-.2 0-.2.3-.2H9l.6.2L11 3l1.4.8c.5.6.7.5 1.3.2h.5c0 .1.2.3.1.4-.2.2-1.4.2-1.5.6.2.2.8 0 1.1 0l1.8.3c1.1.2 2.1-.4 3.1-.7.9-.2 1.8.1 2.6-.3 1-.5 1.6-1.4 2.5-2 1.2-.7 2.4-1.2 3.7-1.7L29 0Z"/>
</svg>
