<svg version="1.1" xmlns="http://www.w3.org/2000/svg" viewBox="0 0 32 32" class="cmp-icon cmp-icon--ohio">
  <path fill="currentcolor" d="M25.6 5c.1 0 .2 0 .2.2L26 13c0 .5-.5.1-.3 1.2a4 4 0 0 1-.2 1.8l-.4 1.3-.3 1.3c0 .3 0 .6-.2.8l-1.2 1.1c-1 1.2-1.3.2-2 1-.5.7-.7.2-1 1.3v.8c0 .2-.3.4-.5.4l-.4-.5c-.3-.2-.6.2-.7.5l-.2.4c-.1.2-.2.4-.1.7v.4c0 .3-.3.5-.5.7l-.3.5c-.2.2-.7.4-.9.3l-.7-.6c-.1-.2-.4-.2-.6-.5-.2-.4-.3-1-1-.7l-.7.5c-.8.4-1-.5-2.3-.1-.5 0-.8-.5-1.3-.7-.6-.1-1.2 0-1.5-.5-.1-.3-.2-.6-.4-.7-.2-.3-.4-.7-.7-.7h-.8l-.7-.2H6l.3-16c0-.2 0-.2.2-.2h5.6l.4.1 1 .4.9.5c.3.4.5.4.9.2h.3s.1.2 0 .2c0 .2-.9.2-1 .4.2.2.6 0 .8 0l1.2.3c.8 0 1.4-.3 2.1-.5.6-.2 1.2 0 1.8-.2L22 6.6l2.5-1.2 1-.4Z"/>
</svg>
