<svg xmlns="http://www.w3.org/2000/svg" fill="none" viewBox="0 0 32 32" class="cmp-icon cmp-icon--threads">
  <path fill="currentcolor" d="m21.6 15.1-.3-.1c-.2-3.4-2-5.4-5-5.4h-.1c-1.8 0-3.3.8-4.3 2.2l1.7 1.2a3 3 0 0 1 2.6-1.3c1 0 1.8.3 2.3 1 .3.3.6 1 .7 1.7-1-.2-1.9-.2-2.9-.2-2.9.2-4.7 2-4.6 4.3 0 1.3.7 2.3 1.7 3 .8.6 2 .9 3 .8 1.6 0 2.7-.7 3.6-1.8.6-.8 1-1.9 1.2-3.2.7.4 1.2 1 1.5 1.7.5 1.2.5 3.2-1 4.8-1.4 1.5-3 2-5.5 2-2.8 0-4.9-.9-6.2-2.6C8.7 21.5 8 19 8 16s.7-5.5 2-7.2c1.3-1.7 3.4-2.7 6.2-2.7 2.8 0 4.9 1 6.3 2.7a9 9 0 0 1 1.5 3.3l2-.5A9.5 9.5 0 0 0 16.2 4c-3.4 0-6 1.2-7.8 3.5A14 14 0 0 0 6 16c0 3.6.8 6.4 2.4 8.5a9.3 9.3 0 0 0 7.8 3.5 9 9 0 0 0 6.9-2.6 6.6 6.6 0 0 0 1.5-7.2 6 6 0 0 0-3-3Zm-5.3 5c-1.2.2-2.5-.4-2.6-1.7 0-1 .6-2 2.7-2a12.9 12.9 0 0 1 2.8.1c-.2 3.1-1.6 3.6-2.9 3.7Z"/>
</svg>